<?xml version="1.0" encoding="UTF-8" standalone="no"?>
<!DOCTYPE svg PUBLIC "-//W3C//DTD SVG 1.1//EN"
 "http://www.w3.org/Graphics/SVG/1.1/DTD/svg11.dtd">
<!-- Generated by graphviz version 2.40.1 (20161225.0304)
 -->
<!-- Title: dependency&#45;cruiser output Pages: 1 -->
<svg width="643pt" height="1141pt"
 viewBox="0.00 0.00 643.09 1141.00" xmlns="http://www.w3.org/2000/svg" xmlns:xlink="http://www.w3.org/1999/xlink">
<g id="graph0" class="graph" transform="scale(1 1) rotate(0) translate(4 1137)">
<title>dependency&#45;cruiser output</title>
<polygon fill="#ffffff" stroke="transparent" points="-4,4 -4,-1137 639.0867,-1137 639.0867,4 -4,4"/>
<g id="clust1" class="cluster">
<title>cluster_/node_modules</title>
<path fill="none" stroke="#000000" stroke-width="2" d="M179.5308,-8C179.5308,-8 261.0547,-8 261.0547,-8 267.0547,-8 273.0547,-14 273.0547,-20 273.0547,-20 273.0547,-113 273.0547,-113 273.0547,-119 267.0547,-125 261.0547,-125 261.0547,-125 179.5308,-125 179.5308,-125 173.5308,-125 167.5308,-119 167.5308,-113 167.5308,-113 167.5308,-20 167.5308,-20 167.5308,-14 173.5308,-8 179.5308,-8"/>
<text text-anchor="middle" x="220.2927" y="-113.8" font-family="Helvetica,sans-Serif" font-weight="bold" font-size="9.00" fill="#000000">node_modules</text>
</g>
<g id="clust2" class="cluster">
<title>cluster_/node_modules/randexp</title>
<path fill="none" stroke="#000000" stroke-width="2" d="M187.5308,-16C187.5308,-16 253.0547,-16 253.0547,-16 259.0547,-16 265.0547,-22 265.0547,-28 265.0547,-28 265.0547,-88 265.0547,-88 265.0547,-94 259.0547,-100 253.0547,-100 253.0547,-100 187.5308,-100 187.5308,-100 181.5308,-100 175.5308,-94 175.5308,-88 175.5308,-88 175.5308,-28 175.5308,-28 175.5308,-22 181.5308,-16 187.5308,-16"/>
<text text-anchor="middle" x="220.2927" y="-88.8" font-family="Helvetica,sans-Serif" font-weight="bold" font-size="9.00" fill="#000000">randexp</text>
</g>
<g id="clust3" class="cluster">
<title>cluster_/node_modules/randexp/lib</title>
<path fill="none" stroke="#000000" stroke-width="2" d="M195.5308,-24C195.5308,-24 245.0547,-24 245.0547,-24 251.0547,-24 257.0547,-30 257.0547,-36 257.0547,-36 257.0547,-63 257.0547,-63 257.0547,-69 251.0547,-75 245.0547,-75 245.0547,-75 195.5308,-75 195.5308,-75 189.5308,-75 183.5308,-69 183.5308,-63 183.5308,-63 183.5308,-36 183.5308,-36 183.5308,-30 189.5308,-24 195.5308,-24"/>
<text text-anchor="middle" x="220.2927" y="-63.8" font-family="Helvetica,sans-Serif" font-weight="bold" font-size="9.00" fill="#000000">lib</text>
</g>
<g id="clust4" class="cluster">
<title>cluster_/src</title>
<path fill="none" stroke="#000000" stroke-width="2" d="M20,-159C20,-159 617.0867,-159 617.0867,-159 623.0867,-159 629.0867,-165 629.0867,-171 629.0867,-171 629.0867,-1113 629.0867,-1113 629.0867,-1119 623.0867,-1125 617.0867,-1125 617.0867,-1125 20,-1125 20,-1125 14,-1125 8,-1119 8,-1113 8,-1113 8,-171 8,-171 8,-165 14,-159 20,-159"/>
<text text-anchor="middle" x="318.5433" y="-1113.8" font-family="Helvetica,sans-Serif" font-weight="bold" font-size="9.00" fill="#000000">src</text>
</g>
<g id="clust5" class="cluster">
<title>cluster_/src/bool</title>
<path fill="none" stroke="#000000" stroke-width="2" d="M95.7654,-167C95.7654,-167 141.7654,-167 141.7654,-167 147.7654,-167 153.7654,-173 153.7654,-179 153.7654,-179 153.7654,-206 153.7654,-206 153.7654,-212 147.7654,-218 141.7654,-218 141.7654,-218 95.7654,-218 95.7654,-218 89.7654,-218 83.7654,-212 83.7654,-206 83.7654,-206 83.7654,-179 83.7654,-179 83.7654,-173 89.7654,-167 95.7654,-167"/>
<text text-anchor="middle" x="118.7654" y="-206.8" font-family="Helvetica,sans-Serif" font-weight="bold" font-size="9.00" fill="#000000">bool</text>
</g>
<g id="clust6" class="cluster">
<title>cluster_/src/choose</title>
<path fill="none" stroke="#000000" stroke-width="2" d="M95.7546,-226C95.7546,-226 244.5559,-226 244.5559,-226 250.5559,-226 256.5559,-232 256.5559,-238 256.5559,-238 256.5559,-294 256.5559,-294 256.5559,-300 250.5559,-306 244.5559,-306 244.5559,-306 95.7546,-306 95.7546,-306 89.7546,-306 83.7546,-300 83.7546,-294 83.7546,-294 83.7546,-238 83.7546,-238 83.7546,-232 89.7546,-226 95.7546,-226"/>
<text text-anchor="middle" x="170.1553" y="-294.8" font-family="Helvetica,sans-Serif" font-weight="bold" font-size="9.00" fill="#000000">choose</text>
</g>
<g id="clust7" class="cluster">
<title>cluster_/src/core</title>
<path fill="none" stroke="#000000" stroke-width="2" d="M95.7654,-314C95.7654,-314 609.0867,-314 609.0867,-314 615.0867,-314 621.0867,-320 621.0867,-326 621.0867,-326 621.0867,-734 621.0867,-734 621.0867,-740 615.0867,-746 609.0867,-746 609.0867,-746 95.7654,-746 95.7654,-746 89.7654,-746 83.7654,-740 83.7654,-734 83.7654,-734 83.7654,-326 83.7654,-326 83.7654,-320 89.7654,-314 95.7654,-314"/>
<text text-anchor="middle" x="352.426" y="-734.8" font-family="Helvetica,sans-Serif" font-weight="bold" font-size="9.00" fill="#000000">core</text>
</g>
<g id="clust8" class="cluster">
<title>cluster_/src/core/distribution</title>
<path fill="none" stroke="#000000" stroke-width="2" d="M553.0867,-470C553.0867,-470 599.0867,-470 599.0867,-470 605.0867,-470 611.0867,-476 611.0867,-482 611.0867,-482 611.0867,-509 611.0867,-509 611.0867,-515 605.0867,-521 599.0867,-521 599.0867,-521 553.0867,-521 553.0867,-521 547.0867,-521 541.0867,-515 541.0867,-509 541.0867,-509 541.0867,-482 541.0867,-482 541.0867,-476 547.0867,-470 553.0867,-470"/>
<text text-anchor="middle" x="576.0867" y="-509.8" font-family="Helvetica,sans-Serif" font-weight="bold" font-size="9.00" fill="#000000">distribution</text>
</g>
<g id="clust9" class="cluster">
<title>cluster_/src/core/moon</title>
<path fill="none" stroke="#000000" stroke-width="2" d="M197.2927,-322C197.2927,-322 243.2927,-322 243.2927,-322 249.2927,-322 255.2927,-328 255.2927,-334 255.2927,-334 255.2927,-361 255.2927,-361 255.2927,-367 249.2927,-373 243.2927,-373 243.2927,-373 197.2927,-373 197.2927,-373 191.2927,-373 185.2927,-367 185.2927,-361 185.2927,-361 185.2927,-334 185.2927,-334 185.2927,-328 191.2927,-322 197.2927,-322"/>
<text text-anchor="middle" x="220.2927" y="-361.8" font-family="Helvetica,sans-Serif" font-weight="bold" font-size="9.00" fill="#000000">moon</text>
</g>
<g id="clust10" class="cluster">
<title>cluster_/src/core/primitives</title>
<path fill="none" stroke="#000000" stroke-width="2" d="M188.781,-391C188.781,-391 251.8044,-391 251.8044,-391 257.8044,-391 263.8044,-397 263.8044,-403 263.8044,-403 263.8044,-699 263.8044,-699 263.8044,-705 257.8044,-711 251.8044,-711 251.8044,-711 188.781,-711 188.781,-711 182.781,-711 176.781,-705 176.781,-699 176.781,-699 176.781,-403 176.781,-403 176.781,-397 182.781,-391 188.781,-391"/>
<text text-anchor="middle" x="220.2927" y="-699.8" font-family="Helvetica,sans-Serif" font-weight="bold" font-size="9.00" fill="#000000">primitives</text>
</g>
<g id="clust11" class="cluster">
<title>cluster_/src/core/primitives/array</title>
<path fill="none" stroke="#000000" stroke-width="2" d="M197.2927,-635C197.2927,-635 243.2927,-635 243.2927,-635 249.2927,-635 255.2927,-641 255.2927,-647 255.2927,-647 255.2927,-674 255.2927,-674 255.2927,-680 249.2927,-686 243.2927,-686 243.2927,-686 197.2927,-686 197.2927,-686 191.2927,-686 185.2927,-680 185.2927,-674 185.2927,-674 185.2927,-647 185.2927,-647 185.2927,-641 191.2927,-635 197.2927,-635"/>
<text text-anchor="middle" x="220.2927" y="-674.8" font-family="Helvetica,sans-Serif" font-weight="bold" font-size="9.00" fill="#000000">array</text>
</g>
<g id="clust12" class="cluster">
<title>cluster_/src/core/primitives/json</title>
<path fill="none" stroke="#000000" stroke-width="2" d="M197.2927,-576C197.2927,-576 243.2927,-576 243.2927,-576 249.2927,-576 255.2927,-582 255.2927,-588 255.2927,-588 255.2927,-615 255.2927,-615 255.2927,-621 249.2927,-627 243.2927,-627 243.2927,-627 197.2927,-627 197.2927,-627 191.2927,-627 185.2927,-621 185.2927,-615 185.2927,-615 185.2927,-588 185.2927,-588 185.2927,-582 191.2927,-576 197.2927,-576"/>
<text text-anchor="middle" x="220.2927" y="-615.8" font-family="Helvetica,sans-Serif" font-weight="bold" font-size="9.00" fill="#000000">json</text>
</g>
<g id="clust13" class="cluster">
<title>cluster_/src/core/primitives/number</title>
<path fill="none" stroke="#000000" stroke-width="2" d="M196.781,-517C196.781,-517 243.8044,-517 243.8044,-517 249.8044,-517 255.8044,-523 255.8044,-529 255.8044,-529 255.8044,-556 255.8044,-556 255.8044,-562 249.8044,-568 243.8044,-568 243.8044,-568 196.781,-568 196.781,-568 190.781,-568 184.781,-562 184.781,-556 184.781,-556 184.781,-529 184.781,-529 184.781,-523 190.781,-517 196.781,-517"/>
<text text-anchor="middle" x="220.2927" y="-556.8" font-family="Helvetica,sans-Serif" font-weight="bold" font-size="9.00" fill="#000000">number</text>
</g>
<g id="clust14" class="cluster">
<title>cluster_/src/core/primitives/object</title>
<path fill="none" stroke="#000000" stroke-width="2" d="M197.2927,-458C197.2927,-458 243.2927,-458 243.2927,-458 249.2927,-458 255.2927,-464 255.2927,-470 255.2927,-470 255.2927,-497 255.2927,-497 255.2927,-503 249.2927,-509 243.2927,-509 243.2927,-509 197.2927,-509 197.2927,-509 191.2927,-509 185.2927,-503 185.2927,-497 185.2927,-497 185.2927,-470 185.2927,-470 185.2927,-464 191.2927,-458 197.2927,-458"/>
<text text-anchor="middle" x="220.2927" y="-497.8" font-family="Helvetica,sans-Serif" font-weight="bold" font-size="9.00" fill="#000000">object</text>
</g>
<g id="clust15" class="cluster">
<title>cluster_/src/core/primitives/string</title>
<path fill="none" stroke="#000000" stroke-width="2" d="M197.2927,-399C197.2927,-399 243.2927,-399 243.2927,-399 249.2927,-399 255.2927,-405 255.2927,-411 255.2927,-411 255.2927,-438 255.2927,-438 255.2927,-444 249.2927,-450 243.2927,-450 243.2927,-450 197.2927,-450 197.2927,-450 191.2927,-450 185.2927,-444 185.2927,-438 185.2927,-438 185.2927,-411 185.2927,-411 185.2927,-405 191.2927,-399 197.2927,-399"/>
<text text-anchor="middle" x="220.2927" y="-438.8" font-family="Helvetica,sans-Serif" font-weight="bold" font-size="9.00" fill="#000000">string</text>
</g>
<g id="clust16" class="cluster">
<title>cluster_/src/core/prng</title>
<path fill="none" stroke="#000000" stroke-width="2" d="M451.5762,-411C451.5762,-411 599.0867,-411 599.0867,-411 605.0867,-411 611.0867,-417 611.0867,-423 611.0867,-423 611.0867,-450 611.0867,-450 611.0867,-456 605.0867,-462 599.0867,-462 599.0867,-462 451.5762,-462 451.5762,-462 445.5762,-462 439.5762,-456 439.5762,-450 439.5762,-450 439.5762,-423 439.5762,-423 439.5762,-417 445.5762,-411 451.5762,-411"/>
<text text-anchor="middle" x="525.3314" y="-450.8" font-family="Helvetica,sans-Serif" font-weight="bold" font-size="9.00" fill="#000000">prng</text>
</g>
<g id="clust17" class="cluster">
<title>cluster_/src/core/process&#45;seed</title>
<path fill="none" stroke="#000000" stroke-width="2" d="M551.0867,-529C551.0867,-529 601.0867,-529 601.0867,-529 607.0867,-529 613.0867,-535 613.0867,-541 613.0867,-541 613.0867,-568 613.0867,-568 613.0867,-574 607.0867,-580 601.0867,-580 601.0867,-580 551.0867,-580 551.0867,-580 545.0867,-580 539.0867,-574 539.0867,-568 539.0867,-568 539.0867,-541 539.0867,-541 539.0867,-535 545.0867,-529 551.0867,-529"/>
<text text-anchor="middle" x="576.0867" y="-568.8" font-family="Helvetica,sans-Serif" font-weight="bold" font-size="9.00" fill="#000000">process&#45;seed</text>
</g>
<g id="clust18" class="cluster">
<title>cluster_/src/core/recurse</title>
<path fill="none" stroke="#000000" stroke-width="2" d="M293.0547,-458C293.0547,-458 419.5762,-458 419.5762,-458 425.5762,-458 431.5762,-464 431.5762,-470 431.5762,-470 431.5762,-497 431.5762,-497 431.5762,-503 425.5762,-509 419.5762,-509 419.5762,-509 293.0547,-509 293.0547,-509 287.0547,-509 281.0547,-503 281.0547,-497 281.0547,-497 281.0547,-470 281.0547,-470 281.0547,-464 287.0547,-458 293.0547,-458"/>
<text text-anchor="middle" x="356.3154" y="-497.8" font-family="Helvetica,sans-Serif" font-weight="bold" font-size="9.00" fill="#000000">recurse</text>
</g>
<g id="clust19" class="cluster">
<title>cluster_/src/core/register</title>
<path fill="none" stroke="#000000" stroke-width="2" d="M366.8154,-579C366.8154,-579 503.0867,-579 503.0867,-579 509.0867,-579 515.0867,-585 515.0867,-591 515.0867,-591 515.0867,-647 515.0867,-647 515.0867,-653 509.0867,-659 503.0867,-659 503.0867,-659 366.8154,-659 366.8154,-659 360.8154,-659 354.8154,-653 354.8154,-647 354.8154,-647 354.8154,-591 354.8154,-591 354.8154,-585 360.8154,-579 366.8154,-579"/>
<text text-anchor="middle" x="434.951" y="-647.8" font-family="Helvetica,sans-Serif" font-weight="bold" font-size="9.00" fill="#000000">register</text>
</g>
<g id="clust20" class="cluster">
<title>cluster_/src/date</title>
<path fill="none" stroke="#000000" stroke-width="2" d="M95.7654,-754C95.7654,-754 141.7654,-754 141.7654,-754 147.7654,-754 153.7654,-760 153.7654,-766 153.7654,-766 153.7654,-793 153.7654,-793 153.7654,-799 147.7654,-805 141.7654,-805 141.7654,-805 95.7654,-805 95.7654,-805 89.7654,-805 83.7654,-799 83.7654,-793 83.7654,-793 83.7654,-766 83.7654,-766 83.7654,-760 89.7654,-754 95.7654,-754"/>
<text text-anchor="middle" x="118.7654" y="-793.8" font-family="Helvetica,sans-Serif" font-weight="bold" font-size="9.00" fill="#000000">date</text>
</g>
<g id="clust21" class="cluster">
<title>cluster_/src/duplicable</title>
<path fill="none" stroke="#000000" stroke-width="2" d="M90,-813C90,-813 147.5308,-813 147.5308,-813 153.5308,-813 159.5308,-819 159.5308,-825 159.5308,-825 159.5308,-852 159.5308,-852 159.5308,-858 153.5308,-864 147.5308,-864 147.5308,-864 90,-864 90,-864 84,-864 78,-858 78,-852 78,-852 78,-825 78,-825 78,-819 84,-813 90,-813"/>
<text text-anchor="middle" x="118.7654" y="-852.8" font-family="Helvetica,sans-Serif" font-weight="bold" font-size="9.00" fill="#000000">duplicable</text>
</g>
<g id="clust22" class="cluster">
<title>cluster_/src/lorem</title>
<path fill="none" stroke="#000000" stroke-width="2" d="M95.7654,-872C95.7654,-872 141.7654,-872 141.7654,-872 147.7654,-872 153.7654,-878 153.7654,-884 153.7654,-884 153.7654,-911 153.7654,-911 153.7654,-917 147.7654,-923 141.7654,-923 141.7654,-923 95.7654,-923 95.7654,-923 89.7654,-923 83.7654,-917 83.7654,-911 83.7654,-911 83.7654,-884 83.7654,-884 83.7654,-878 89.7654,-872 95.7654,-872"/>
<text text-anchor="middle" x="118.7654" y="-911.8" font-family="Helvetica,sans-Serif" font-weight="bold" font-size="9.00" fill="#000000">lorem</text>
</g>
<g id="clust23" class="cluster">
<title>cluster_/src/name</title>
<path fill="none" stroke="#000000" stroke-width="2" d="M95.7654,-990C95.7654,-990 248.8076,-990 248.8076,-990 254.8076,-990 260.8076,-996 260.8076,-1002 260.8076,-1002 260.8076,-1029 260.8076,-1029 260.8076,-1035 254.8076,-1041 248.8076,-1041 248.8076,-1041 95.7654,-1041 95.7654,-1041 89.7654,-1041 83.7654,-1035 83.7654,-1029 83.7654,-1029 83.7654,-1002 83.7654,-1002 83.7654,-996 89.7654,-990 95.7654,-990"/>
<text text-anchor="middle" x="172.2865" y="-1029.8" font-family="Helvetica,sans-Serif" font-weight="bold" font-size="9.00" fill="#000000">name</text>
</g>
<g id="clust24" class="cluster">
<title>cluster_/src/regex</title>
<path fill="none" stroke="#000000" stroke-width="2" d="M95.7654,-931C95.7654,-931 141.7654,-931 141.7654,-931 147.7654,-931 153.7654,-937 153.7654,-943 153.7654,-943 153.7654,-970 153.7654,-970 153.7654,-976 147.7654,-982 141.7654,-982 141.7654,-982 95.7654,-982 95.7654,-982 89.7654,-982 83.7654,-976 83.7654,-970 83.7654,-970 83.7654,-943 83.7654,-943 83.7654,-937 89.7654,-931 95.7654,-931"/>
<text text-anchor="middle" x="118.7654" y="-970.8" font-family="Helvetica,sans-Serif" font-weight="bold" font-size="9.00" fill="#000000">regex</text>
</g>
<g id="clust25" class="cluster">
<title>cluster_/src/shuffle</title>
<path fill="none" stroke="#000000" stroke-width="2" d="M95.7654,-1049C95.7654,-1049 141.7654,-1049 141.7654,-1049 147.7654,-1049 153.7654,-1055 153.7654,-1061 153.7654,-1061 153.7654,-1088 153.7654,-1088 153.7654,-1094 147.7654,-1100 141.7654,-1100 141.7654,-1100 95.7654,-1100 95.7654,-1100 89.7654,-1100 83.7654,-1094 83.7654,-1088 83.7654,-1088 83.7654,-1061 83.7654,-1061 83.7654,-1055 89.7654,-1049 95.7654,-1049"/>
<text text-anchor="middle" x="118.7654" y="-1088.8" font-family="Helvetica,sans-Serif" font-weight="bold" font-size="9.00" fill="#000000">shuffle</text>
</g>
<!-- node_modules/randexp/lib/randexp.js -->
<g id="node1" class="node">
<title>node_modules/randexp/lib/randexp.js</title>
<g id="a_node1"><a xlink:href="https:/github.com/billymoon/fiona/blob/master/node_modules/randexp/lib/randexp.js" xlink:title="randexp.js">
<polygon fill="#ffffcc" stroke="#000000" points="248.8186,-49.5 247.4019,-51.3889 237.4853,-51.3889 236.0686,-49.5 191.7668,-49.5 191.7668,-32.5 248.8186,-32.5 248.8186,-49.5"/>
<text text-anchor="middle" x="220.2927" y="-38.3" font-family="Helvetica,sans-Serif" font-size="9.00" fill="#000000">randexp.js</text>
</a>
</g>
</g>
<!-- package.json -->
<g id="node2" class="node">
<title>package.json</title>
<g id="a_node2"><a xlink:href="https:/github.com/billymoon/fiona/blob/master/package.json" xlink:title="package.json">
<path fill="#ffee44" stroke="#000000" d="M249.1637,-150.5C249.1637,-150.5 191.4218,-150.5 191.4218,-150.5 188.5885,-150.5 185.7551,-147.6667 185.7551,-144.8333 185.7551,-144.8333 185.7551,-139.1667 185.7551,-139.1667 185.7551,-136.3333 188.5885,-133.5 191.4218,-133.5 191.4218,-133.5 249.1637,-133.5 249.1637,-133.5 251.997,-133.5 254.8303,-136.3333 254.8303,-139.1667 254.8303,-139.1667 254.8303,-144.8333 254.8303,-144.8333 254.8303,-147.6667 251.997,-150.5 249.1637,-150.5"/>
<text text-anchor="middle" x="220.2927" y="-139.3" font-family="Helvetica,sans-Serif" font-size="9.00" fill="#000000">package.json</text>
</a>
</g>
</g>
<!-- src/bool/bool.js -->
<g id="node3" class="node">
<title>src/bool/bool.js</title>
<g id="a_node3"><a xlink:href="https:/github.com/billymoon/fiona/blob/master/src/bool/bool.js" xlink:title="bool.js">
<path fill="#ffffcc" stroke="#000000" d="M140.0987,-192.5C140.0987,-192.5 97.432,-192.5 97.432,-192.5 94.5987,-192.5 91.7654,-189.6667 91.7654,-186.8333 91.7654,-186.8333 91.7654,-181.1667 91.7654,-181.1667 91.7654,-178.3333 94.5987,-175.5 97.432,-175.5 97.432,-175.5 140.0987,-175.5 140.0987,-175.5 142.932,-175.5 145.7654,-178.3333 145.7654,-181.1667 145.7654,-181.1667 145.7654,-186.8333 145.7654,-186.8333 145.7654,-189.6667 142.932,-192.5 140.0987,-192.5"/>
<text text-anchor="middle" x="118.7654" y="-181.3" font-family="Helvetica,sans-Serif" font-size="9.00" fill="#000000">bool.js</text>
</a>
</g>
</g>
<!-- src/choose/choose.js -->
<g id="node4" class="node">
<title>src/choose/choose.js</title>
<g id="a_node4"><a xlink:href="https:/github.com/billymoon/fiona/blob/master/src/choose/choose.js" xlink:title="choose.js">
<path fill="#ffffcc" stroke="#000000" d="M140.1202,-280.5C140.1202,-280.5 97.4106,-280.5 97.4106,-280.5 94.5772,-280.5 91.7439,-277.6667 91.7439,-274.8333 91.7439,-274.8333 91.7439,-269.1667 91.7439,-269.1667 91.7439,-266.3333 94.5772,-263.5 97.4106,-263.5 97.4106,-263.5 140.1202,-263.5 140.1202,-263.5 142.9535,-263.5 145.7869,-266.3333 145.7869,-269.1667 145.7869,-269.1667 145.7869,-274.8333 145.7869,-274.8333 145.7869,-277.6667 142.9535,-280.5 140.1202,-280.5"/>
<text text-anchor="middle" x="118.7654" y="-269.3" font-family="Helvetica,sans-Serif" font-size="9.00" fill="#000000">choose.js</text>
</a>
</g>
</g>
<!-- src/choose/chooser.js -->
<g id="node5" class="node">
<title>src/choose/chooser.js</title>
<g id="a_node5"><a xlink:href="https:/github.com/billymoon/fiona/blob/master/src/choose/chooser.js" xlink:title="chooser.js">
<path fill="#ffffcc" stroke="#000000" d="M242.6544,-265.5C242.6544,-265.5 197.9311,-265.5 197.9311,-265.5 195.0977,-265.5 192.2644,-262.6667 192.2644,-259.8333 192.2644,-259.8333 192.2644,-254.1667 192.2644,-254.1667 192.2644,-251.3333 195.0977,-248.5 197.9311,-248.5 197.9311,-248.5 242.6544,-248.5 242.6544,-248.5 245.4877,-248.5 248.3211,-251.3333 248.3211,-254.1667 248.3211,-254.1667 248.3211,-259.8333 248.3211,-259.8333 248.3211,-262.6667 245.4877,-265.5 242.6544,-265.5"/>
<text text-anchor="middle" x="220.2927" y="-254.3" font-family="Helvetica,sans-Serif" font-size="9.00" fill="#000000">chooser.js</text>
</a>
</g>
</g>
<!-- src/choose/choose.js&#45;&gt;src/choose/chooser.js -->
<g id="edge1" class="edge">
<title>src/choose/choose.js&#45;&gt;src/choose/chooser.js</title>
<path fill="none" stroke="#000000" d="M145.9728,-267.9803C156.9669,-266.356 169.8549,-264.4519 181.783,-262.6896"/>
<polygon fill="#000000" stroke="#000000" points="182.5653,-266.1121 191.9463,-261.188 181.5421,-259.1872 182.5653,-266.1121"/>
</g>
<!-- src/choose/one&#45;of.js -->
<g id="node6" class="node">
<title>src/choose/one&#45;of.js</title>
<g id="a_node6"><a xlink:href="https:/github.com/billymoon/fiona/blob/master/src/choose/one-of.js" xlink:title="one&#45;of.js">
<path fill="#ffffcc" stroke="#000000" d="M140.0987,-251.5C140.0987,-251.5 97.432,-251.5 97.432,-251.5 94.5987,-251.5 91.7654,-248.6667 91.7654,-245.8333 91.7654,-245.8333 91.7654,-240.1667 91.7654,-240.1667 91.7654,-237.3333 94.5987,-234.5 97.432,-234.5 97.432,-234.5 140.0987,-234.5 140.0987,-234.5 142.932,-234.5 145.7654,-237.3333 145.7654,-240.1667 145.7654,-240.1667 145.7654,-245.8333 145.7654,-245.8333 145.7654,-248.6667 142.932,-251.5 140.0987,-251.5"/>
<text text-anchor="middle" x="118.7654" y="-240.3" font-family="Helvetica,sans-Serif" font-size="9.00" fill="#000000">one&#45;of.js</text>
</a>
</g>
</g>
<!-- src/choose/one&#45;of.js&#45;&gt;src/choose/chooser.js -->
<g id="edge2" class="edge">
<title>src/choose/one&#45;of.js&#45;&gt;src/choose/chooser.js</title>
<path fill="none" stroke="#000000" d="M145.9728,-246.7517C156.9669,-248.2678 169.8549,-250.0449 181.783,-251.6897"/>
<polygon fill="#000000" stroke="#000000" points="181.5619,-255.1923 191.9463,-253.0912 182.5182,-248.2579 181.5619,-255.1923"/>
</g>
<!-- src/core/distribution/index.js -->
<g id="node7" class="node">
<title>src/core/distribution/index.js</title>
<g id="a_node7"><a xlink:href="https:/github.com/billymoon/fiona/blob/master/src/core/distribution/index.js" xlink:title="index.js">
<path fill="#ffffcc" stroke="#000000" d="M597.42,-495.5C597.42,-495.5 554.7533,-495.5 554.7533,-495.5 551.92,-495.5 549.0867,-492.6667 549.0867,-489.8333 549.0867,-489.8333 549.0867,-484.1667 549.0867,-484.1667 549.0867,-481.3333 551.92,-478.5 554.7533,-478.5 554.7533,-478.5 597.42,-478.5 597.42,-478.5 600.2533,-478.5 603.0867,-481.3333 603.0867,-484.1667 603.0867,-484.1667 603.0867,-489.8333 603.0867,-489.8333 603.0867,-492.6667 600.2533,-495.5 597.42,-495.5"/>
<text text-anchor="middle" x="576.0867" y="-484.3" font-family="Helvetica,sans-Serif" font-size="9.00" fill="#000000">index.js</text>
</a>
</g>
</g>
<!-- src/core/index.js -->
<g id="node8" class="node">
<title>src/core/index.js</title>
<g id="a_node8"><a xlink:href="https:/github.com/billymoon/fiona/blob/master/src/core/index.js" xlink:title="index.js">
<path fill="#ffffcc" stroke="#000000" d="M140.0987,-513.5C140.0987,-513.5 97.432,-513.5 97.432,-513.5 94.5987,-513.5 91.7654,-510.6667 91.7654,-507.8333 91.7654,-507.8333 91.7654,-502.1667 91.7654,-502.1667 91.7654,-499.3333 94.5987,-496.5 97.432,-496.5 97.432,-496.5 140.0987,-496.5 140.0987,-496.5 142.932,-496.5 145.7654,-499.3333 145.7654,-502.1667 145.7654,-502.1667 145.7654,-507.8333 145.7654,-507.8333 145.7654,-510.6667 142.932,-513.5 140.0987,-513.5"/>
<text text-anchor="middle" x="118.7654" y="-502.3" font-family="Helvetica,sans-Serif" font-size="9.00" fill="#000000">index.js</text>
</a>
</g>
</g>
<!-- src/core/index.js&#45;&gt;package.json -->
<g id="edge3" class="edge">
<title>src/core/index.js&#45;&gt;package.json</title>
<path fill="none" stroke="#000000" d="M120.8998,-496.4648C127.6202,-469.2804 148.5476,-382.211 159.5308,-309 165.2259,-271.0376 154.9084,-259.2527 167.5308,-223 176.0188,-198.6215 193.354,-174.2969 205.8409,-158.762"/>
<polygon fill="#000000" stroke="#000000" points="208.8398,-160.6288 212.5293,-150.6971 203.4516,-156.1603 208.8398,-160.6288"/>
</g>
<!-- src/core/moon/index.js -->
<g id="node9" class="node">
<title>src/core/moon/index.js</title>
<g id="a_node9"><a xlink:href="https:/github.com/billymoon/fiona/blob/master/src/core/moon/index.js" xlink:title="index.js">
<path fill="#ffffcc" stroke="#000000" d="M241.6261,-347.5C241.6261,-347.5 198.9594,-347.5 198.9594,-347.5 196.1261,-347.5 193.2927,-344.6667 193.2927,-341.8333 193.2927,-341.8333 193.2927,-336.1667 193.2927,-336.1667 193.2927,-333.3333 196.1261,-330.5 198.9594,-330.5 198.9594,-330.5 241.6261,-330.5 241.6261,-330.5 244.4594,-330.5 247.2927,-333.3333 247.2927,-336.1667 247.2927,-336.1667 247.2927,-341.8333 247.2927,-341.8333 247.2927,-344.6667 244.4594,-347.5 241.6261,-347.5"/>
<text text-anchor="middle" x="220.2927" y="-336.3" font-family="Helvetica,sans-Serif" font-size="9.00" fill="#000000">index.js</text>
</a>
</g>
</g>
<!-- src/core/index.js&#45;&gt;src/core/moon/index.js -->
<g id="edge4" class="edge">
<title>src/core/index.js&#45;&gt;src/core/moon/index.js</title>
<path fill="none" stroke="#000000" d="M120.3543,-496.4675C125.9417,-467.3497 145.5393,-372.5658 167.5308,-352 171.945,-347.872 177.454,-344.9959 183.2334,-343.0036"/>
<polygon fill="#000000" stroke="#000000" points="184.2867,-346.3458 193.0696,-340.4203 182.5085,-339.5754 184.2867,-346.3458"/>
</g>
<!-- src/core/primitives/array/array.js -->
<g id="node10" class="node">
<title>src/core/primitives/array/array.js</title>
<g id="a_node10"><a xlink:href="https:/github.com/billymoon/fiona/blob/master/src/core/primitives/array/array.js" xlink:title="array.js">
<path fill="#ffffcc" stroke="#000000" d="M241.6261,-660.5C241.6261,-660.5 198.9594,-660.5 198.9594,-660.5 196.1261,-660.5 193.2927,-657.6667 193.2927,-654.8333 193.2927,-654.8333 193.2927,-649.1667 193.2927,-649.1667 193.2927,-646.3333 196.1261,-643.5 198.9594,-643.5 198.9594,-643.5 241.6261,-643.5 241.6261,-643.5 244.4594,-643.5 247.2927,-646.3333 247.2927,-649.1667 247.2927,-649.1667 247.2927,-654.8333 247.2927,-654.8333 247.2927,-657.6667 244.4594,-660.5 241.6261,-660.5"/>
<text text-anchor="middle" x="220.2927" y="-649.3" font-family="Helvetica,sans-Serif" font-size="9.00" fill="#000000">array.js</text>
</a>
</g>
</g>
<!-- src/core/index.js&#45;&gt;src/core/primitives/array/array.js -->
<g id="edge5" class="edge">
<title>src/core/index.js&#45;&gt;src/core/primitives/array/array.js</title>
<path fill="none" stroke="#000000" d="M119.7814,-513.5148C122.8535,-535.6532 133.9932,-595.6791 167.5308,-630 172.0826,-634.6582 177.768,-638.3738 183.7066,-641.3241"/>
<polygon fill="#000000" stroke="#000000" points="182.5502,-644.6363 193.1206,-645.3557 185.3059,-638.2015 182.5502,-644.6363"/>
</g>
<!-- src/core/primitives/json/json.js -->
<g id="node11" class="node">
<title>src/core/primitives/json/json.js</title>
<g id="a_node11"><a xlink:href="https:/github.com/billymoon/fiona/blob/master/src/core/primitives/json/json.js" xlink:title="json.js">
<path fill="#ffffcc" stroke="#000000" d="M241.6261,-601.5C241.6261,-601.5 198.9594,-601.5 198.9594,-601.5 196.1261,-601.5 193.2927,-598.6667 193.2927,-595.8333 193.2927,-595.8333 193.2927,-590.1667 193.2927,-590.1667 193.2927,-587.3333 196.1261,-584.5 198.9594,-584.5 198.9594,-584.5 241.6261,-584.5 241.6261,-584.5 244.4594,-584.5 247.2927,-587.3333 247.2927,-590.1667 247.2927,-590.1667 247.2927,-595.8333 247.2927,-595.8333 247.2927,-598.6667 244.4594,-601.5 241.6261,-601.5"/>
<text text-anchor="middle" x="220.2927" y="-590.3" font-family="Helvetica,sans-Serif" font-size="9.00" fill="#000000">json.js</text>
</a>
</g>
</g>
<!-- src/core/index.js&#45;&gt;src/core/primitives/json/json.js -->
<g id="edge6" class="edge">
<title>src/core/index.js&#45;&gt;src/core/primitives/json/json.js</title>
<path fill="none" stroke="#000000" d="M123.2717,-513.8881C130.7328,-527.8084 146.8985,-554.8295 167.5308,-571 172.3847,-574.8043 177.991,-578.0579 183.6984,-580.8042"/>
<polygon fill="#000000" stroke="#000000" points="182.7165,-584.193 193.2839,-584.9544 185.4978,-577.7692 182.7165,-584.193"/>
</g>
<!-- src/core/primitives/number/number.js -->
<g id="node12" class="node">
<title>src/core/primitives/number/number.js</title>
<g id="a_node12"><a xlink:href="https:/github.com/billymoon/fiona/blob/master/src/core/primitives/number/number.js" xlink:title="number.js">
<path fill="#ffffcc" stroke="#000000" d="M242.1495,-542.5C242.1495,-542.5 198.4359,-542.5 198.4359,-542.5 195.6026,-542.5 192.7693,-539.6667 192.7693,-536.8333 192.7693,-536.8333 192.7693,-531.1667 192.7693,-531.1667 192.7693,-528.3333 195.6026,-525.5 198.4359,-525.5 198.4359,-525.5 242.1495,-525.5 242.1495,-525.5 244.9828,-525.5 247.8162,-528.3333 247.8162,-531.1667 247.8162,-531.1667 247.8162,-536.8333 247.8162,-536.8333 247.8162,-539.6667 244.9828,-542.5 242.1495,-542.5"/>
<text text-anchor="middle" x="220.2927" y="-531.3" font-family="Helvetica,sans-Serif" font-size="9.00" fill="#000000">number.js</text>
</a>
</g>
</g>
<!-- src/core/index.js&#45;&gt;src/core/primitives/number/number.js -->
<g id="edge7" class="edge">
<title>src/core/index.js&#45;&gt;src/core/primitives/number/number.js</title>
<path fill="none" stroke="#000000" d="M145.9728,-512.7715C157.2615,-515.9959 170.547,-519.7908 182.7398,-523.2735"/>
<polygon fill="#000000" stroke="#000000" points="182.0801,-526.725 192.6568,-526.1062 184.0027,-519.9942 182.0801,-526.725"/>
</g>
<!-- src/core/primitives/object/object.js -->
<g id="node13" class="node">
<title>src/core/primitives/object/object.js</title>
<g id="a_node13"><a xlink:href="https:/github.com/billymoon/fiona/blob/master/src/core/primitives/object/object.js" xlink:title="object.js">
<path fill="#ffffcc" stroke="#000000" d="M241.6261,-483.5C241.6261,-483.5 198.9594,-483.5 198.9594,-483.5 196.1261,-483.5 193.2927,-480.6667 193.2927,-477.8333 193.2927,-477.8333 193.2927,-472.1667 193.2927,-472.1667 193.2927,-469.3333 196.1261,-466.5 198.9594,-466.5 198.9594,-466.5 241.6261,-466.5 241.6261,-466.5 244.4594,-466.5 247.2927,-469.3333 247.2927,-472.1667 247.2927,-472.1667 247.2927,-477.8333 247.2927,-477.8333 247.2927,-480.6667 244.4594,-483.5 241.6261,-483.5"/>
<text text-anchor="middle" x="220.2927" y="-472.3" font-family="Helvetica,sans-Serif" font-size="9.00" fill="#000000">object.js</text>
</a>
</g>
</g>
<!-- src/core/index.js&#45;&gt;src/core/primitives/object/object.js -->
<g id="edge8" class="edge">
<title>src/core/index.js&#45;&gt;src/core/primitives/object/object.js</title>
<path fill="none" stroke="#000000" d="M145.9728,-496.9606C157.4671,-493.5642 171.0316,-489.556 183.4048,-485.8999"/>
<polygon fill="#000000" stroke="#000000" points="184.4119,-489.252 193.0102,-483.0616 182.4282,-482.5389 184.4119,-489.252"/>
</g>
<!-- src/core/primitives/string/string.js -->
<g id="node14" class="node">
<title>src/core/primitives/string/string.js</title>
<g id="a_node14"><a xlink:href="https:/github.com/billymoon/fiona/blob/master/src/core/primitives/string/string.js" xlink:title="string.js">
<path fill="#ffffcc" stroke="#000000" d="M241.6261,-424.5C241.6261,-424.5 198.9594,-424.5 198.9594,-424.5 196.1261,-424.5 193.2927,-421.6667 193.2927,-418.8333 193.2927,-418.8333 193.2927,-413.1667 193.2927,-413.1667 193.2927,-410.3333 196.1261,-407.5 198.9594,-407.5 198.9594,-407.5 241.6261,-407.5 241.6261,-407.5 244.4594,-407.5 247.2927,-410.3333 247.2927,-413.1667 247.2927,-413.1667 247.2927,-418.8333 247.2927,-418.8333 247.2927,-421.6667 244.4594,-424.5 241.6261,-424.5"/>
<text text-anchor="middle" x="220.2927" y="-413.3" font-family="Helvetica,sans-Serif" font-size="9.00" fill="#000000">string.js</text>
</a>
</g>
</g>
<!-- src/core/index.js&#45;&gt;src/core/primitives/string/string.js -->
<g id="edge9" class="edge">
<title>src/core/index.js&#45;&gt;src/core/primitives/string/string.js</title>
<path fill="none" stroke="#000000" d="M126.3183,-496.4503C135.5886,-486.1522 151.9957,-468.549 167.5308,-455 177.3896,-446.4016 189.0212,-437.6691 198.851,-430.6532"/>
<polygon fill="#000000" stroke="#000000" points="201.0941,-433.355 207.2692,-424.7458 197.0731,-427.6251 201.0941,-433.355"/>
</g>
<!-- src/core/prng/index.js -->
<g id="node15" class="node">
<title>src/core/prng/index.js</title>
<g id="a_node15"><a xlink:href="https:/github.com/billymoon/fiona/blob/master/src/core/prng/index.js" xlink:title="index.js">
<path fill="#ffffcc" stroke="#000000" d="M495.9095,-436.5C495.9095,-436.5 453.2428,-436.5 453.2428,-436.5 450.4095,-436.5 447.5762,-433.6667 447.5762,-430.8333 447.5762,-430.8333 447.5762,-425.1667 447.5762,-425.1667 447.5762,-422.3333 450.4095,-419.5 453.2428,-419.5 453.2428,-419.5 495.9095,-419.5 495.9095,-419.5 498.7428,-419.5 501.5762,-422.3333 501.5762,-425.1667 501.5762,-425.1667 501.5762,-430.8333 501.5762,-430.8333 501.5762,-433.6667 498.7428,-436.5 495.9095,-436.5"/>
<text text-anchor="middle" x="474.5762" y="-425.3" font-family="Helvetica,sans-Serif" font-size="9.00" fill="#000000">index.js</text>
</a>
</g>
</g>
<!-- src/core/index.js&#45;&gt;src/core/prng/index.js -->
<g id="edge10" class="edge">
<title>src/core/index.js&#45;&gt;src/core/prng/index.js</title>
<path fill="none" stroke="#000000" d="M119.5542,-496.4977C122.0503,-475.106 131.8674,-419.1144 167.5308,-396 211.2549,-367.6612 365.6864,-400.8302 437.4327,-418.4219"/>
<polygon fill="#000000" stroke="#000000" points="436.8465,-421.8825 447.3952,-420.8952 438.5332,-415.0888 436.8465,-421.8825"/>
</g>
<!-- src/core/register/index.js -->
<g id="node20" class="node">
<title>src/core/register/index.js</title>
<g id="a_node20"><a xlink:href="https:/github.com/billymoon/fiona/blob/master/src/core/register/index.js" xlink:title="index.js">
<path fill="#ffffcc" stroke="#000000" d="M411.1488,-619.5C411.1488,-619.5 368.4821,-619.5 368.4821,-619.5 365.6488,-619.5 362.8154,-616.6667 362.8154,-613.8333 362.8154,-613.8333 362.8154,-608.1667 362.8154,-608.1667 362.8154,-605.3333 365.6488,-602.5 368.4821,-602.5 368.4821,-602.5 411.1488,-602.5 411.1488,-602.5 413.9821,-602.5 416.8154,-605.3333 416.8154,-608.1667 416.8154,-608.1667 416.8154,-613.8333 416.8154,-613.8333 416.8154,-616.6667 413.9821,-619.5 411.1488,-619.5"/>
<text text-anchor="middle" x="389.8154" y="-608.3" font-family="Helvetica,sans-Serif" font-size="9.00" fill="#000000">index.js</text>
</a>
</g>
</g>
<!-- src/core/index.js&#45;&gt;src/core/register/index.js -->
<g id="edge11" class="edge">
<title>src/core/index.js&#45;&gt;src/core/register/index.js</title>
<path fill="none" stroke="#000000" d="M119.678,-513.5774C123.4135,-546.8763 138.7209,-666.831 167.5308,-689 233.1954,-739.5286 334.1387,-661.2356 373.4007,-626.3671"/>
<polygon fill="#000000" stroke="#000000" points="375.7529,-628.9589 380.8077,-619.6476 371.0496,-623.7743 375.7529,-628.9589"/>
</g>
<!-- src/core/recurse/index.js -->
<g id="node19" class="node">
<title>src/core/recurse/index.js</title>
<g id="a_node19"><a xlink:href="https:/github.com/billymoon/fiona/blob/master/src/core/recurse/index.js" xlink:title="index.js">
<path fill="#ffffcc" stroke="#000000" d="M337.388,-483.5C337.388,-483.5 294.7214,-483.5 294.7214,-483.5 291.888,-483.5 289.0547,-480.6667 289.0547,-477.8333 289.0547,-477.8333 289.0547,-472.1667 289.0547,-472.1667 289.0547,-469.3333 291.888,-466.5 294.7214,-466.5 294.7214,-466.5 337.388,-466.5 337.388,-466.5 340.2214,-466.5 343.0547,-469.3333 343.0547,-472.1667 343.0547,-472.1667 343.0547,-477.8333 343.0547,-477.8333 343.0547,-480.6667 340.2214,-483.5 337.388,-483.5"/>
<text text-anchor="middle" x="316.0547" y="-472.3" font-family="Helvetica,sans-Serif" font-size="9.00" fill="#000000">index.js</text>
</a>
</g>
</g>
<!-- src/core/primitives/array/array.js&#45;&gt;src/core/recurse/index.js -->
<g id="edge12" class="edge">
<title>src/core/primitives/array/array.js&#45;&gt;src/core/recurse/index.js</title>
<path fill="none" stroke="#000000" d="M247.4234,-646.9444C257.0758,-643.7345 267.0338,-638.5052 273.0547,-630 291.316,-604.2039 262.2887,-513.4313 281.0547,-488 281.1196,-487.912 281.1852,-487.8246 281.2515,-487.7377"/>
<polygon fill="#000000" stroke="#000000" points="283.5608,-490.3688 288.9516,-481.2479 279.0496,-485.0163 283.5608,-490.3688"/>
</g>
<!-- src/core/primitives/object/object.js&#45;&gt;src/core/recurse/index.js -->
<g id="edge13" class="edge">
<title>src/core/primitives/object/object.js&#45;&gt;src/core/recurse/index.js</title>
<path fill="none" stroke="#000000" d="M247.4781,-475C257.1825,-475 268.2914,-475 278.7017,-475"/>
<polygon fill="#000000" stroke="#000000" points="278.8014,-478.5001 288.8013,-475 278.8013,-471.5001 278.8014,-478.5001"/>
</g>
<!-- src/core/primitives/string/string.js&#45;&gt;src/core/recurse/index.js -->
<g id="edge14" class="edge">
<title>src/core/primitives/string/string.js&#45;&gt;src/core/recurse/index.js</title>
<path fill="none" stroke="#000000" d="M233.2802,-424.7873C244.2187,-432.3769 260.1079,-443.8501 273.0547,-455 275.5551,-457.1534 276.3818,-458.7794 280.0309,-461.5312"/>
<polygon fill="#000000" stroke="#000000" points="278.4089,-464.6462 288.7344,-467.0198 282.1428,-458.7252 278.4089,-464.6462"/>
</g>
<!-- src/core/prng/index.js&#45;&gt;src/core/distribution/index.js -->
<g id="edge15" class="edge">
<title>src/core/prng/index.js&#45;&gt;src/core/distribution/index.js</title>
<path fill="none" stroke="#000000" d="M489.5544,-436.7057C506.1425,-446.347 533.1042,-462.0177 552.5266,-473.3064"/>
<polygon fill="#000000" stroke="#000000" points="550.9725,-476.4513 561.377,-478.4505 554.4901,-470.3993 550.9725,-476.4513"/>
</g>
<!-- src/core/prng/xor.js -->
<g id="node16" class="node">
<title>src/core/prng/xor.js</title>
<g id="a_node16"><a xlink:href="https:/github.com/billymoon/fiona/blob/master/src/core/prng/xor.js" xlink:title="xor.js">
<path fill="#ffffcc" stroke="#000000" d="M597.42,-436.5C597.42,-436.5 554.7533,-436.5 554.7533,-436.5 551.92,-436.5 549.0867,-433.6667 549.0867,-430.8333 549.0867,-430.8333 549.0867,-425.1667 549.0867,-425.1667 549.0867,-422.3333 551.92,-419.5 554.7533,-419.5 554.7533,-419.5 597.42,-419.5 597.42,-419.5 600.2533,-419.5 603.0867,-422.3333 603.0867,-425.1667 603.0867,-425.1667 603.0867,-430.8333 603.0867,-430.8333 603.0867,-433.6667 600.2533,-436.5 597.42,-436.5"/>
<text text-anchor="middle" x="576.0867" y="-425.3" font-family="Helvetica,sans-Serif" font-size="9.00" fill="#000000">xor.js</text>
</a>
</g>
</g>
<!-- src/core/prng/index.js&#45;&gt;src/core/prng/xor.js -->
<g id="edge17" class="edge">
<title>src/core/prng/index.js&#45;&gt;src/core/prng/xor.js</title>
<path fill="none" stroke="#000000" d="M501.7791,-428C513.0438,-428 526.2974,-428 538.4686,-428"/>
<polygon fill="#000000" stroke="#000000" points="538.8087,-431.5001 548.8086,-428 538.8086,-424.5001 538.8087,-431.5001"/>
</g>
<!-- src/core/process&#45;seed/index.js -->
<g id="node17" class="node">
<title>src/core/process&#45;seed/index.js</title>
<g id="a_node17"><a xlink:href="https:/github.com/billymoon/fiona/blob/master/src/core/process-seed/index.js" xlink:title="index.js">
<path fill="#ffffcc" stroke="#000000" d="M597.42,-554.5C597.42,-554.5 554.7533,-554.5 554.7533,-554.5 551.92,-554.5 549.0867,-551.6667 549.0867,-548.8333 549.0867,-548.8333 549.0867,-543.1667 549.0867,-543.1667 549.0867,-540.3333 551.92,-537.5 554.7533,-537.5 554.7533,-537.5 597.42,-537.5 597.42,-537.5 600.2533,-537.5 603.0867,-540.3333 603.0867,-543.1667 603.0867,-543.1667 603.0867,-548.8333 603.0867,-548.8333 603.0867,-551.6667 600.2533,-554.5 597.42,-554.5"/>
<text text-anchor="middle" x="576.0867" y="-543.3" font-family="Helvetica,sans-Serif" font-size="9.00" fill="#000000">index.js</text>
</a>
</g>
</g>
<!-- src/core/prng/index.js&#45;&gt;src/core/process&#45;seed/index.js -->
<g id="edge16" class="edge">
<title>src/core/prng/index.js&#45;&gt;src/core/process&#45;seed/index.js</title>
<path fill="none" stroke="#000000" d="M478.6977,-436.6146C487.6406,-454.6187 510.3532,-496.8115 539.0867,-524 542.2012,-526.9471 545.7782,-529.6782 549.4539,-532.1422"/>
<polygon fill="#000000" stroke="#000000" points="547.6795,-535.1596 558.0386,-537.3824 551.3267,-529.1848 547.6795,-535.1596"/>
</g>
<!-- src/core/recurse/arguments.js -->
<g id="node18" class="node">
<title>src/core/recurse/arguments.js</title>
<g id="a_node18"><a xlink:href="https:/github.com/billymoon/fiona/blob/master/src/core/recurse/arguments.js" xlink:title="arguments.js">
<path fill="#ffffcc" stroke="#000000" d="M417.6719,-483.5C417.6719,-483.5 361.9589,-483.5 361.9589,-483.5 359.1256,-483.5 356.2923,-480.6667 356.2923,-477.8333 356.2923,-477.8333 356.2923,-472.1667 356.2923,-472.1667 356.2923,-469.3333 359.1256,-466.5 361.9589,-466.5 361.9589,-466.5 417.6719,-466.5 417.6719,-466.5 420.5053,-466.5 423.3386,-469.3333 423.3386,-472.1667 423.3386,-472.1667 423.3386,-477.8333 423.3386,-477.8333 423.3386,-480.6667 420.5053,-483.5 417.6719,-483.5"/>
<text text-anchor="middle" x="389.8154" y="-472.3" font-family="Helvetica,sans-Serif" font-size="9.00" fill="#000000">arguments.js</text>
</a>
</g>
</g>
<!-- src/core/recurse/arguments.js&#45;&gt;src/core/prng/index.js -->
<g id="edge18" class="edge">
<title>src/core/recurse/arguments.js&#45;&gt;src/core/prng/index.js</title>
<path fill="none" stroke="#000000" d="M423.5619,-466.6027C426.329,-465.5253 429.0356,-464.3275 431.5762,-463 441.3497,-457.8931 450.9872,-450.3477 458.653,-443.569"/>
<polygon fill="#000000" stroke="#000000" points="461.1494,-446.0276 466.1106,-436.6661 456.3943,-440.8905 461.1494,-446.0276"/>
</g>
<!-- src/core/recurse/index.js&#45;&gt;src/core/recurse/arguments.js -->
<g id="edge20" class="edge">
<title>src/core/recurse/index.js&#45;&gt;src/core/recurse/arguments.js</title>
<path fill="none" stroke="#000000" d="M343.1016,-475C344.037,-475 344.9815,-475 345.9324,-475"/>
<polygon fill="#000000" stroke="#000000" points="346.2468,-478.5001 356.2468,-475 346.2468,-471.5001 346.2468,-478.5001"/>
</g>
<!-- src/core/recurse/index.js&#45;&gt;src/core/register/index.js -->
<g id="edge19" class="edge">
<title>src/core/recurse/index.js&#45;&gt;src/core/register/index.js</title>
<path fill="none" stroke="#000000" d="M337.7511,-483.5106C339.6931,-484.823 341.5066,-486.3137 343.0547,-488 350.4113,-496.0135 372.706,-560.191 383.6381,-592.5223"/>
<polygon fill="#000000" stroke="#000000" points="380.367,-593.776 386.8719,-602.1389 387.0019,-591.5448 380.367,-593.776"/>
</g>
<!-- src/core/register/register.js -->
<g id="node21" class="node">
<title>src/core/register/register.js</title>
<g id="a_node21"><a xlink:href="https:/github.com/billymoon/fiona/blob/master/src/core/register/register.js" xlink:title="register.js">
<path fill="#ffffcc" stroke="#000000" d="M495.9297,-604.5C495.9297,-604.5 453.2227,-604.5 453.2227,-604.5 450.3893,-604.5 447.556,-601.6667 447.556,-598.8333 447.556,-598.8333 447.556,-593.1667 447.556,-593.1667 447.556,-590.3333 450.3893,-587.5 453.2227,-587.5 453.2227,-587.5 495.9297,-587.5 495.9297,-587.5 498.763,-587.5 501.5963,-590.3333 501.5963,-593.1667 501.5963,-593.1667 501.5963,-598.8333 501.5963,-598.8333 501.5963,-601.6667 498.763,-604.5 495.9297,-604.5"/>
<text text-anchor="middle" x="474.5762" y="-593.3" font-family="Helvetica,sans-Serif" font-size="9.00" fill="#000000">register.js</text>
</a>
</g>
</g>
<!-- src/core/register/index.js&#45;&gt;src/core/register/register.js -->
<g id="edge21" class="edge">
<title>src/core/register/index.js&#45;&gt;src/core/register/register.js</title>
<path fill="none" stroke="#000000" d="M417.1008,-606.1713C423.4527,-605.0473 430.3249,-603.8311 437.0333,-602.6439"/>
<polygon fill="#000000" stroke="#000000" points="438.1048,-606.0088 447.3419,-600.8196 436.885,-599.1159 438.1048,-606.0088"/>
</g>
<!-- src/core/register/registered.js -->
<g id="node22" class="node">
<title>src/core/register/registered.js</title>
<g id="a_node22"><a xlink:href="https:/github.com/billymoon/fiona/blob/master/src/core/register/registered.js" xlink:title="registered.js">
<path fill="#ffffcc" stroke="#000000" d="M501.4305,-633.5C501.4305,-633.5 447.7218,-633.5 447.7218,-633.5 444.8885,-633.5 442.0552,-630.6667 442.0552,-627.8333 442.0552,-627.8333 442.0552,-622.1667 442.0552,-622.1667 442.0552,-619.3333 444.8885,-616.5 447.7218,-616.5 447.7218,-616.5 501.4305,-616.5 501.4305,-616.5 504.2638,-616.5 507.0972,-619.3333 507.0972,-622.1667 507.0972,-622.1667 507.0972,-627.8333 507.0972,-627.8333 507.0972,-630.6667 504.2638,-633.5 501.4305,-633.5"/>
<text text-anchor="middle" x="474.5762" y="-622.3" font-family="Helvetica,sans-Serif" font-size="9.00" fill="#000000">registered.js</text>
</a>
</g>
</g>
<!-- src/core/register/index.js&#45;&gt;src/core/register/registered.js -->
<g id="edge22" class="edge">
<title>src/core/register/index.js&#45;&gt;src/core/register/registered.js</title>
<path fill="none" stroke="#000000" d="M417.1008,-615.5068C421.8133,-616.2851 426.8122,-617.1108 431.8181,-617.9376"/>
<polygon fill="#000000" stroke="#000000" points="431.5771,-621.4451 442.0138,-619.6216 432.7179,-614.5387 431.5771,-621.4451"/>
</g>
<!-- src/date/date.js -->
<g id="node23" class="node">
<title>src/date/date.js</title>
<g id="a_node23"><a xlink:href="https:/github.com/billymoon/fiona/blob/master/src/date/date.js" xlink:title="date.js">
<path fill="#ffffcc" stroke="#000000" d="M140.0987,-779.5C140.0987,-779.5 97.432,-779.5 97.432,-779.5 94.5987,-779.5 91.7654,-776.6667 91.7654,-773.8333 91.7654,-773.8333 91.7654,-768.1667 91.7654,-768.1667 91.7654,-765.3333 94.5987,-762.5 97.432,-762.5 97.432,-762.5 140.0987,-762.5 140.0987,-762.5 142.932,-762.5 145.7654,-765.3333 145.7654,-768.1667 145.7654,-768.1667 145.7654,-773.8333 145.7654,-773.8333 145.7654,-776.6667 142.932,-779.5 140.0987,-779.5"/>
<text text-anchor="middle" x="118.7654" y="-768.3" font-family="Helvetica,sans-Serif" font-size="9.00" fill="#000000">date.js</text>
</a>
</g>
</g>
<!-- src/duplicable/duplicable.js -->
<g id="node24" class="node">
<title>src/duplicable/duplicable.js</title>
<g id="a_node24"><a xlink:href="https:/github.com/billymoon/fiona/blob/master/src/duplicable/duplicable.js" xlink:title="duplicable.js">
<path fill="#ffffcc" stroke="#000000" d="M145.6311,-838.5C145.6311,-838.5 91.8996,-838.5 91.8996,-838.5 89.0663,-838.5 86.233,-835.6667 86.233,-832.8333 86.233,-832.8333 86.233,-827.1667 86.233,-827.1667 86.233,-824.3333 89.0663,-821.5 91.8996,-821.5 91.8996,-821.5 145.6311,-821.5 145.6311,-821.5 148.4645,-821.5 151.2978,-824.3333 151.2978,-827.1667 151.2978,-827.1667 151.2978,-832.8333 151.2978,-832.8333 151.2978,-835.6667 148.4645,-838.5 145.6311,-838.5"/>
<text text-anchor="middle" x="118.7654" y="-827.3" font-family="Helvetica,sans-Serif" font-size="9.00" fill="#000000">duplicable.js</text>
</a>
</g>
</g>
<!-- src/index.js -->
<g id="node25" class="node">
<title>src/index.js</title>
<g id="a_node25"><a xlink:href="https:/github.com/billymoon/fiona/blob/master/src/index.js" xlink:title="index.js">
<path fill="#ffffcc" stroke="#000000" d="M64.3333,-808.5C64.3333,-808.5 21.6667,-808.5 21.6667,-808.5 18.8333,-808.5 16,-805.6667 16,-802.8333 16,-802.8333 16,-797.1667 16,-797.1667 16,-794.3333 18.8333,-791.5 21.6667,-791.5 21.6667,-791.5 64.3333,-791.5 64.3333,-791.5 67.1667,-791.5 70,-794.3333 70,-797.1667 70,-797.1667 70,-802.8333 70,-802.8333 70,-805.6667 67.1667,-808.5 64.3333,-808.5"/>
<text text-anchor="middle" x="43" y="-797.3" font-family="Helvetica,sans-Serif" font-size="9.00" fill="#000000">index.js</text>
</a>
</g>
</g>
<!-- src/index.js&#45;&gt;src/bool/bool.js -->
<g id="edge23" class="edge">
<title>src/index.js&#45;&gt;src/bool/bool.js</title>
<path fill="none" stroke="#000000" d="M43.1439,-791.4036C44.3273,-723.6468 53.0458,-276.8341 78,-223 82.356,-213.6028 90.0694,-205.3143 97.6231,-198.8221"/>
<polygon fill="#000000" stroke="#000000" points="99.9223,-201.466 105.5905,-192.515 95.5775,-195.9776 99.9223,-201.466"/>
</g>
<!-- src/index.js&#45;&gt;src/choose/choose.js -->
<g id="edge24" class="edge">
<title>src/index.js&#45;&gt;src/choose/choose.js</title>
<path fill="none" stroke="#000000" d="M43.2499,-791.1875C45.066,-728.8971 56.7697,-356.1557 78,-311 82.407,-301.6266 90.1292,-293.3423 97.6758,-286.8467"/>
<polygon fill="#000000" stroke="#000000" points="99.9733,-289.4917 105.6304,-280.5336 95.6217,-284.0086 99.9733,-289.4917"/>
</g>
<!-- src/index.js&#45;&gt;src/choose/one&#45;of.js -->
<g id="edge25" class="edge">
<title>src/index.js&#45;&gt;src/choose/one&#45;of.js</title>
<path fill="none" stroke="#000000" d="M43.288,-791.4336C45.5883,-723.9772 61.3228,-280.3363 78,-258 79.393,-256.1343 81.043,-254.5005 82.8676,-253.0697"/>
<polygon fill="#000000" stroke="#000000" points="84.7832,-256.0063 91.7309,-248.0076 81.3115,-249.9278 84.7832,-256.0063"/>
</g>
<!-- src/index.js&#45;&gt;src/core/index.js -->
<g id="edge26" class="edge">
<title>src/index.js&#45;&gt;src/core/index.js</title>
<path fill="none" stroke="#000000" d="M45.1858,-791.4894C55.5126,-751.2808 99.5178,-579.9422 114.0714,-523.2765"/>
<polygon fill="#000000" stroke="#000000" points="117.473,-524.1015 116.5707,-513.5452 110.6931,-522.3601 117.473,-524.1015"/>
</g>
<!-- src/index.js&#45;&gt;src/date/date.js -->
<g id="edge27" class="edge">
<title>src/index.js&#45;&gt;src/date/date.js</title>
<path fill="none" stroke="#000000" d="M65.3223,-791.4559C72.0445,-788.8829 79.5578,-786.0071 86.7782,-783.2434"/>
<polygon fill="#000000" stroke="#000000" points="88.2527,-786.4267 96.3408,-779.5832 85.7504,-779.8893 88.2527,-786.4267"/>
</g>
<!-- src/index.js&#45;&gt;src/duplicable/duplicable.js -->
<g id="edge28" class="edge">
<title>src/index.js&#45;&gt;src/duplicable/duplicable.js</title>
<path fill="none" stroke="#000000" d="M64.5087,-808.5166C71.7068,-811.3667 79.8815,-814.6036 87.6619,-817.6843"/>
<polygon fill="#000000" stroke="#000000" points="86.6167,-821.0348 97.2029,-821.4622 89.1938,-814.5264 86.6167,-821.0348"/>
</g>
<!-- src/lorem/lorem.js -->
<g id="node26" class="node">
<title>src/lorem/lorem.js</title>
<g id="a_node26"><a xlink:href="https:/github.com/billymoon/fiona/blob/master/src/lorem/lorem.js" xlink:title="lorem.js">
<path fill="#ffffcc" stroke="#000000" d="M140.0987,-897.5C140.0987,-897.5 97.432,-897.5 97.432,-897.5 94.5987,-897.5 91.7654,-894.6667 91.7654,-891.8333 91.7654,-891.8333 91.7654,-886.1667 91.7654,-886.1667 91.7654,-883.3333 94.5987,-880.5 97.432,-880.5 97.432,-880.5 140.0987,-880.5 140.0987,-880.5 142.932,-880.5 145.7654,-883.3333 145.7654,-886.1667 145.7654,-886.1667 145.7654,-891.8333 145.7654,-891.8333 145.7654,-894.6667 142.932,-897.5 140.0987,-897.5"/>
<text text-anchor="middle" x="118.7654" y="-886.3" font-family="Helvetica,sans-Serif" font-size="9.00" fill="#000000">lorem.js</text>
</a>
</g>
</g>
<!-- src/index.js&#45;&gt;src/lorem/lorem.js -->
<g id="edge29" class="edge">
<title>src/index.js&#45;&gt;src/lorem/lorem.js</title>
<path fill="none" stroke="#000000" d="M45.7239,-808.8392C50.3795,-822.7187 61.0409,-849.8107 78,-867 81.05,-870.0914 84.6272,-872.8576 88.3733,-875.2981"/>
<polygon fill="#000000" stroke="#000000" points="86.8386,-878.4528 97.2527,-880.4014 90.3267,-872.3838 86.8386,-878.4528"/>
</g>
<!-- src/name/name.js -->
<g id="node27" class="node">
<title>src/name/name.js</title>
<g id="a_node27"><a xlink:href="https:/github.com/billymoon/fiona/blob/master/src/name/name.js" xlink:title="name.js">
<path fill="#ffffcc" stroke="#000000" d="M140.0987,-1015.5C140.0987,-1015.5 97.432,-1015.5 97.432,-1015.5 94.5987,-1015.5 91.7654,-1012.6667 91.7654,-1009.8333 91.7654,-1009.8333 91.7654,-1004.1667 91.7654,-1004.1667 91.7654,-1001.3333 94.5987,-998.5 97.432,-998.5 97.432,-998.5 140.0987,-998.5 140.0987,-998.5 142.932,-998.5 145.7654,-1001.3333 145.7654,-1004.1667 145.7654,-1004.1667 145.7654,-1009.8333 145.7654,-1009.8333 145.7654,-1012.6667 142.932,-1015.5 140.0987,-1015.5"/>
<text text-anchor="middle" x="118.7654" y="-1004.3" font-family="Helvetica,sans-Serif" font-size="9.00" fill="#000000">name.js</text>
</a>
</g>
</g>
<!-- src/index.js&#45;&gt;src/name/name.js -->
<g id="edge30" class="edge">
<title>src/index.js&#45;&gt;src/name/name.js</title>
<path fill="none" stroke="#000000" d="M43.6579,-808.6659C46.2784,-841.2607 56.8708,-956.1087 78,-985 80.2194,-988.0347 82.9877,-990.6948 86.0304,-993.0157"/>
<polygon fill="#000000" stroke="#000000" points="84.2138,-996.008 94.5369,-998.3921 87.9536,-990.0908 84.2138,-996.008"/>
</g>
<!-- src/regex/regex.js -->
<g id="node29" class="node">
<title>src/regex/regex.js</title>
<g id="a_node29"><a xlink:href="https:/github.com/billymoon/fiona/blob/master/src/regex/regex.js" xlink:title="regex.js">
<path fill="#ffffcc" stroke="#000000" d="M140.0987,-956.5C140.0987,-956.5 97.432,-956.5 97.432,-956.5 94.5987,-956.5 91.7654,-953.6667 91.7654,-950.8333 91.7654,-950.8333 91.7654,-945.1667 91.7654,-945.1667 91.7654,-942.3333 94.5987,-939.5 97.432,-939.5 97.432,-939.5 140.0987,-939.5 140.0987,-939.5 142.932,-939.5 145.7654,-942.3333 145.7654,-945.1667 145.7654,-945.1667 145.7654,-950.8333 145.7654,-950.8333 145.7654,-953.6667 142.932,-956.5 140.0987,-956.5"/>
<text text-anchor="middle" x="118.7654" y="-945.3" font-family="Helvetica,sans-Serif" font-size="9.00" fill="#000000">regex.js</text>
</a>
</g>
</g>
<!-- src/index.js&#45;&gt;src/regex/regex.js -->
<g id="edge31" class="edge">
<title>src/index.js&#45;&gt;src/regex/regex.js</title>
<path fill="none" stroke="#000000" d="M44.4795,-808.5755C48.9715,-833.8213 63.0618,-907.2771 78,-926 80.3981,-929.0057 83.3224,-931.6561 86.4928,-933.979"/>
<polygon fill="#000000" stroke="#000000" points="84.9166,-937.1188 95.2668,-939.3823 88.5872,-931.1584 84.9166,-937.1188"/>
</g>
<!-- src/shuffle/shuffle.js -->
<g id="node30" class="node">
<title>src/shuffle/shuffle.js</title>
<g id="a_node30"><a xlink:href="https:/github.com/billymoon/fiona/blob/master/src/shuffle/shuffle.js" xlink:title="shuffle.js">
<path fill="#ffffcc" stroke="#000000" d="M140.0987,-1074.5C140.0987,-1074.5 97.432,-1074.5 97.432,-1074.5 94.5987,-1074.5 91.7654,-1071.6667 91.7654,-1068.8333 91.7654,-1068.8333 91.7654,-1063.1667 91.7654,-1063.1667 91.7654,-1060.3333 94.5987,-1057.5 97.432,-1057.5 97.432,-1057.5 140.0987,-1057.5 140.0987,-1057.5 142.932,-1057.5 145.7654,-1060.3333 145.7654,-1063.1667 145.7654,-1063.1667 145.7654,-1068.8333 145.7654,-1068.8333 145.7654,-1071.6667 142.932,-1074.5 140.0987,-1074.5"/>
<text text-anchor="middle" x="118.7654" y="-1063.3" font-family="Helvetica,sans-Serif" font-size="9.00" fill="#000000">shuffle.js</text>
</a>
</g>
</g>
<!-- src/index.js&#45;&gt;src/shuffle/shuffle.js -->
<g id="edge32" class="edge">
<title>src/index.js&#45;&gt;src/shuffle/shuffle.js</title>
<path fill="none" stroke="#000000" d="M43.2183,-808.6418C44.3467,-847.3605 50.5741,-1004.6921 78,-1044 80.0406,-1046.9247 82.5974,-1049.4962 85.4304,-1051.7493"/>
<polygon fill="#000000" stroke="#000000" points="83.6542,-1054.7691 93.9462,-1057.2841 87.4689,-1048.8998 83.6542,-1054.7691"/>
</g>
<!-- src/name/namedata.js -->
<g id="node28" class="node">
<title>src/name/namedata.js</title>
<g id="a_node28"><a xlink:href="https:/github.com/billymoon/fiona/blob/master/src/name/namedata.js" xlink:title="namedata.js">
<path fill="#ffffcc" stroke="#000000" d="M247.1558,-1015.5C247.1558,-1015.5 193.4296,-1015.5 193.4296,-1015.5 190.5963,-1015.5 187.7629,-1012.6667 187.7629,-1009.8333 187.7629,-1009.8333 187.7629,-1004.1667 187.7629,-1004.1667 187.7629,-1001.3333 190.5963,-998.5 193.4296,-998.5 193.4296,-998.5 247.1558,-998.5 247.1558,-998.5 249.9892,-998.5 252.8225,-1001.3333 252.8225,-1004.1667 252.8225,-1004.1667 252.8225,-1009.8333 252.8225,-1009.8333 252.8225,-1012.6667 249.9892,-1015.5 247.1558,-1015.5"/>
<text text-anchor="middle" x="220.2927" y="-1004.3" font-family="Helvetica,sans-Serif" font-size="9.00" fill="#000000">namedata.js</text>
</a>
</g>
</g>
<!-- src/name/name.js&#45;&gt;src/name/namedata.js -->
<g id="edge33" class="edge">
<title>src/name/name.js&#45;&gt;src/name/namedata.js</title>
<path fill="none" stroke="#000000" d="M145.9728,-1007C155.6765,-1007 166.8556,-1007 177.5479,-1007"/>
<polygon fill="#000000" stroke="#000000" points="177.586,-1010.5001 187.5859,-1007 177.5859,-1003.5001 177.586,-1010.5001"/>
</g>
<!-- src/regex/regex.js&#45;&gt;node_modules/randexp/lib/randexp.js -->
<g id="edge34" class="edge">
<title>src/regex/regex.js&#45;&gt;node_modules/randexp/lib/randexp.js</title>
<path fill="none" stroke="#000000" d="M144.5171,-939.3843C150.4515,-936.1407 156.0404,-931.7839 159.5308,-926 170.9987,-906.9966 161.3936,-148.3302 167.5308,-127 175.1318,-100.5818 193.2421,-74.2342 206.12,-57.799"/>
<polygon fill="#000000" stroke="#000000" points="209.0639,-59.7251 212.6361,-49.7507 203.6234,-55.3204 209.0639,-59.7251"/>
</g>
</g>
</svg>
