<?xml version="1.0" encoding="UTF-8" standalone="no"?>
<!--
npx dependency-cruiser -\-exclude "^node_modules" -\-exclude "test" -\-output-type dot core | pbcopy
http://viz-js.com/
TODO: update xlink:href to point to github
-->
<!DOCTYPE svg PUBLIC "-//W3C//DTD SVG 1.1//EN"
 "http://www.w3.org/Graphics/SVG/1.1/DTD/svg11.dtd">
<!-- Generated by graphviz version 2.40.1 (20161225.0304)
 -->
<!-- Title: dependency&#45;cruiser output Pages: 1 -->
<svg width="470pt" height="593pt"
 viewBox="0.00 0.00 470.01 593.00" xmlns="http://www.w3.org/2000/svg" xmlns:xlink="http://www.w3.org/1999/xlink">
<g id="graph0" class="graph" transform="scale(1 1) rotate(0) translate(4 589)">
<title>dependency&#45;cruiser output</title>
<polygon fill="#ffffff" stroke="transparent" points="-4,4 -4,-589 466.0139,-589 466.0139,4 -4,4"/>
<g id="clust1" class="cluster">
<title>cluster_/..</title>
<path fill="none" stroke="#000000" stroke-width="2" d="M98.7514,-8C98.7514,-8 160.7514,-8 160.7514,-8 166.7514,-8 172.7514,-14 172.7514,-20 172.7514,-20 172.7514,-84 172.7514,-84 172.7514,-90 166.7514,-96 160.7514,-96 160.7514,-96 98.7514,-96 98.7514,-96 92.7514,-96 86.7514,-90 86.7514,-84 86.7514,-84 86.7514,-20 86.7514,-20 86.7514,-14 92.7514,-8 98.7514,-8"/>
<text text-anchor="middle" x="129.7514" y="-83.9" font-family="Helvetica,sans-Serif" font-weight="bold" font-size="9.00" fill="#000000">..</text>
</g>
<g id="clust2" class="cluster">
<title>cluster_/../..</title>
<path fill="none" stroke="#000000" stroke-width="2" d="M106.7514,-16C106.7514,-16 152.7514,-16 152.7514,-16 158.7514,-16 164.7514,-22 164.7514,-28 164.7514,-28 164.7514,-57 164.7514,-57 164.7514,-63 158.7514,-69 152.7514,-69 152.7514,-69 106.7514,-69 106.7514,-69 100.7514,-69 94.7514,-63 94.7514,-57 94.7514,-57 94.7514,-28 94.7514,-28 94.7514,-22 100.7514,-16 106.7514,-16"/>
<text text-anchor="middle" x="129.7514" y="-56.9" font-family="Helvetica,sans-Serif" font-weight="bold" font-size="9.00" fill="#000000">..</text>
</g>
<g id="clust3" class="cluster">
<title>cluster_/src</title>
<path fill="none" stroke="#000000" stroke-width="2" d="M20,-104C20,-104 442.0139,-104 442.0139,-104 448.0139,-104 454.0139,-110 454.0139,-116 454.0139,-116 454.0139,-565 454.0139,-565 454.0139,-571 448.0139,-577 442.0139,-577 442.0139,-577 20,-577 20,-577 14,-577 8,-571 8,-565 8,-565 8,-116 8,-116 8,-110 14,-104 20,-104"/>
<text text-anchor="middle" x="231.007" y="-564.9" font-family="Helvetica,sans-Serif" font-weight="bold" font-size="9.00" fill="#000000">src</text>
</g>
<g id="clust4" class="cluster">
<title>cluster_/src/core</title>
<path fill="none" stroke="#000000" stroke-width="2" d="M28,-112C28,-112 434.0139,-112 434.0139,-112 440.0139,-112 446.0139,-118 446.0139,-124 446.0139,-124 446.0139,-538 446.0139,-538 446.0139,-544 440.0139,-550 434.0139,-550 434.0139,-550 28,-550 28,-550 22,-550 16,-544 16,-538 16,-538 16,-124 16,-124 16,-118 22,-112 28,-112"/>
<text text-anchor="middle" x="231.007" y="-537.9" font-family="Helvetica,sans-Serif" font-weight="bold" font-size="9.00" fill="#000000">core</text>
</g>
<g id="clust5" class="cluster">
<title>cluster_/src/core/distribution</title>
<path fill="none" stroke="#000000" stroke-width="2" d="M283.2563,-120C283.2563,-120 329.2563,-120 329.2563,-120 335.2563,-120 341.2563,-126 341.2563,-132 341.2563,-132 341.2563,-161 341.2563,-161 341.2563,-167 335.2563,-173 329.2563,-173 329.2563,-173 283.2563,-173 283.2563,-173 277.2563,-173 271.2563,-167 271.2563,-161 271.2563,-161 271.2563,-132 271.2563,-132 271.2563,-126 277.2563,-120 283.2563,-120"/>
<text text-anchor="middle" x="306.2563" y="-160.9" font-family="Helvetica,sans-Serif" font-weight="bold" font-size="9.00" fill="#000000">distribution</text>
</g>
<g id="clust6" class="cluster">
<title>cluster_/src/core/moon</title>
<path fill="none" stroke="#000000" stroke-width="2" d="M106.7514,-120C106.7514,-120 152.7514,-120 152.7514,-120 158.7514,-120 164.7514,-126 164.7514,-132 164.7514,-132 164.7514,-161 164.7514,-161 164.7514,-167 158.7514,-173 152.7514,-173 152.7514,-173 106.7514,-173 106.7514,-173 100.7514,-173 94.7514,-167 94.7514,-161 94.7514,-161 94.7514,-132 94.7514,-132 94.7514,-126 100.7514,-120 106.7514,-120"/>
<text text-anchor="middle" x="129.7514" y="-160.9" font-family="Helvetica,sans-Serif" font-weight="bold" font-size="9.00" fill="#000000">moon</text>
</g>
<g id="clust7" class="cluster">
<title>cluster_/src/core/primitives</title>
<path fill="none" stroke="#000000" stroke-width="2" d="M98,-181C98,-181 161.5028,-181 161.5028,-181 167.5028,-181 173.5028,-187 173.5028,-193 173.5028,-193 173.5028,-501 173.5028,-501 173.5028,-507 167.5028,-513 161.5028,-513 161.5028,-513 98,-513 98,-513 92,-513 86,-507 86,-501 86,-501 86,-193 86,-193 86,-187 92,-181 98,-181"/>
<text text-anchor="middle" x="129.7514" y="-500.9" font-family="Helvetica,sans-Serif" font-weight="bold" font-size="9.00" fill="#000000">primitives</text>
</g>
<g id="clust8" class="cluster">
<title>cluster_/src/core/primitives/array</title>
<path fill="none" stroke="#000000" stroke-width="2" d="M106.7514,-433C106.7514,-433 152.7514,-433 152.7514,-433 158.7514,-433 164.7514,-439 164.7514,-445 164.7514,-445 164.7514,-474 164.7514,-474 164.7514,-480 158.7514,-486 152.7514,-486 152.7514,-486 106.7514,-486 106.7514,-486 100.7514,-486 94.7514,-480 94.7514,-474 94.7514,-474 94.7514,-445 94.7514,-445 94.7514,-439 100.7514,-433 106.7514,-433"/>
<text text-anchor="middle" x="129.7514" y="-473.9" font-family="Helvetica,sans-Serif" font-weight="bold" font-size="9.00" fill="#000000">array</text>
</g>
<g id="clust9" class="cluster">
<title>cluster_/src/core/primitives/json</title>
<path fill="none" stroke="#000000" stroke-width="2" d="M106.7514,-372C106.7514,-372 152.7514,-372 152.7514,-372 158.7514,-372 164.7514,-378 164.7514,-384 164.7514,-384 164.7514,-413 164.7514,-413 164.7514,-419 158.7514,-425 152.7514,-425 152.7514,-425 106.7514,-425 106.7514,-425 100.7514,-425 94.7514,-419 94.7514,-413 94.7514,-413 94.7514,-384 94.7514,-384 94.7514,-378 100.7514,-372 106.7514,-372"/>
<text text-anchor="middle" x="129.7514" y="-412.9" font-family="Helvetica,sans-Serif" font-weight="bold" font-size="9.00" fill="#000000">json</text>
</g>
<g id="clust10" class="cluster">
<title>cluster_/src/core/primitives/number</title>
<path fill="none" stroke="#000000" stroke-width="2" d="M106,-311C106,-311 153.5028,-311 153.5028,-311 159.5028,-311 165.5028,-317 165.5028,-323 165.5028,-323 165.5028,-352 165.5028,-352 165.5028,-358 159.5028,-364 153.5028,-364 153.5028,-364 106,-364 106,-364 100,-364 94,-358 94,-352 94,-352 94,-323 94,-323 94,-317 100,-311 106,-311"/>
<text text-anchor="middle" x="129.7514" y="-351.9" font-family="Helvetica,sans-Serif" font-weight="bold" font-size="9.00" fill="#000000">number</text>
</g>
<g id="clust11" class="cluster">
<title>cluster_/src/core/primitives/object</title>
<path fill="none" stroke="#000000" stroke-width="2" d="M106.7514,-250C106.7514,-250 152.7514,-250 152.7514,-250 158.7514,-250 164.7514,-256 164.7514,-262 164.7514,-262 164.7514,-291 164.7514,-291 164.7514,-297 158.7514,-303 152.7514,-303 152.7514,-303 106.7514,-303 106.7514,-303 100.7514,-303 94.7514,-297 94.7514,-291 94.7514,-291 94.7514,-262 94.7514,-262 94.7514,-256 100.7514,-250 106.7514,-250"/>
<text text-anchor="middle" x="129.7514" y="-290.9" font-family="Helvetica,sans-Serif" font-weight="bold" font-size="9.00" fill="#000000">object</text>
</g>
<g id="clust12" class="cluster">
<title>cluster_/src/core/primitives/string</title>
<path fill="none" stroke="#000000" stroke-width="2" d="M106.7514,-189C106.7514,-189 152.7514,-189 152.7514,-189 158.7514,-189 164.7514,-195 164.7514,-201 164.7514,-201 164.7514,-230 164.7514,-230 164.7514,-236 158.7514,-242 152.7514,-242 152.7514,-242 106.7514,-242 106.7514,-242 100.7514,-242 94.7514,-236 94.7514,-230 94.7514,-230 94.7514,-201 94.7514,-201 94.7514,-195 100.7514,-189 106.7514,-189"/>
<text text-anchor="middle" x="129.7514" y="-229.9" font-family="Helvetica,sans-Serif" font-weight="bold" font-size="9.00" fill="#000000">string</text>
</g>
<g id="clust13" class="cluster">
<title>cluster_/src/core/prng</title>
<path fill="none" stroke="#000000" stroke-width="2" d="M193.5028,-242C193.5028,-242 329.2563,-242 329.2563,-242 335.2563,-242 341.2563,-248 341.2563,-254 341.2563,-254 341.2563,-283 341.2563,-283 341.2563,-289 335.2563,-295 329.2563,-295 329.2563,-295 193.5028,-295 193.5028,-295 187.5028,-295 181.5028,-289 181.5028,-283 181.5028,-283 181.5028,-254 181.5028,-254 181.5028,-248 187.5028,-242 193.5028,-242"/>
<text text-anchor="middle" x="261.3796" y="-282.9" font-family="Helvetica,sans-Serif" font-weight="bold" font-size="9.00" fill="#000000">prng</text>
</g>
<g id="clust14" class="cluster">
<title>cluster_/src/core/process&#45;seed</title>
<path fill="none" stroke="#000000" stroke-width="2" d="M283.2563,-181C283.2563,-181 329.2563,-181 329.2563,-181 335.2563,-181 341.2563,-187 341.2563,-193 341.2563,-193 341.2563,-222 341.2563,-222 341.2563,-228 335.2563,-234 329.2563,-234 329.2563,-234 283.2563,-234 283.2563,-234 277.2563,-234 271.2563,-228 271.2563,-222 271.2563,-222 271.2563,-193 271.2563,-193 271.2563,-187 277.2563,-181 283.2563,-181"/>
<text text-anchor="middle" x="306.2563" y="-221.9" font-family="Helvetica,sans-Serif" font-weight="bold" font-size="9.00" fill="#000000">process&#45;seed</text>
</g>
<g id="clust15" class="cluster">
<title>cluster_/src/core/recurse</title>
<path fill="none" stroke="#000000" stroke-width="2" d="M193.5028,-322C193.5028,-322 336.0098,-322 336.0098,-322 342.0098,-322 348.0098,-328 348.0098,-334 348.0098,-334 348.0098,-363 348.0098,-363 348.0098,-369 342.0098,-375 336.0098,-375 336.0098,-375 193.5028,-375 193.5028,-375 187.5028,-375 181.5028,-369 181.5028,-363 181.5028,-363 181.5028,-334 181.5028,-334 181.5028,-328 187.5028,-322 193.5028,-322"/>
<text text-anchor="middle" x="264.7563" y="-362.9" font-family="Helvetica,sans-Serif" font-weight="bold" font-size="9.00" fill="#000000">recurse</text>
</g>
<g id="clust16" class="cluster">
<title>cluster_/src/core/register</title>
<path fill="none" stroke="#000000" stroke-width="2" d="M283.2563,-402C283.2563,-402 426.0139,-402 426.0139,-402 432.0139,-402 438.0139,-408 438.0139,-414 438.0139,-414 438.0139,-474 438.0139,-474 438.0139,-480 432.0139,-486 426.0139,-486 426.0139,-486 283.2563,-486 283.2563,-486 277.2563,-486 271.2563,-480 271.2563,-474 271.2563,-474 271.2563,-414 271.2563,-414 271.2563,-408 277.2563,-402 283.2563,-402"/>
<text text-anchor="middle" x="354.6351" y="-473.9" font-family="Helvetica,sans-Serif" font-weight="bold" font-size="9.00" fill="#000000">register</text>
</g>
<!-- ../../package -->
<g id="node1" class="node">
<title>../../package</title>
<path fill="#ffffcc" stroke="#ff0000" d="M150.5507,-42.3011C150.5507,-42.3011 108.9521,-42.3011 108.9521,-42.3011 105.8518,-42.3011 102.7514,-39.2007 102.7514,-36.1004 102.7514,-36.1004 102.7514,-29.8996 102.7514,-29.8996 102.7514,-26.7993 105.8518,-23.6989 108.9521,-23.6989 108.9521,-23.6989 150.5507,-23.6989 150.5507,-23.6989 153.651,-23.6989 156.7514,-26.7993 156.7514,-29.8996 156.7514,-29.8996 156.7514,-36.1004 156.7514,-36.1004 156.7514,-39.2007 153.651,-42.3011 150.5507,-42.3011"/>
<text text-anchor="middle" x="129.7514" y="-30.3" font-family="Helvetica,sans-Serif" font-size="9.00" fill="#ff0000">package</text>
</g>
<!-- src/core/distribution/index.js -->
<g id="node2" class="node">
<title>src/core/distribution/index.js</title>
<g id="a_node2"><a xlink:href="src/core/distribution/index.js" xlink:title="index.js">
<path fill="#ffffcc" stroke="#000000" d="M327.0556,-146.3011C327.0556,-146.3011 285.457,-146.3011 285.457,-146.3011 282.3567,-146.3011 279.2563,-143.2007 279.2563,-140.1004 279.2563,-140.1004 279.2563,-133.8996 279.2563,-133.8996 279.2563,-130.7993 282.3567,-127.6989 285.457,-127.6989 285.457,-127.6989 327.0556,-127.6989 327.0556,-127.6989 330.1559,-127.6989 333.2563,-130.7993 333.2563,-133.8996 333.2563,-133.8996 333.2563,-140.1004 333.2563,-140.1004 333.2563,-143.2007 330.1559,-146.3011 327.0556,-146.3011"/>
<text text-anchor="middle" x="306.2563" y="-134.3" font-family="Helvetica,sans-Serif" font-size="9.00" fill="#000000">index.js</text>
</a>
</g>
</g>
<!-- src/core/index.js -->
<g id="node3" class="node">
<title>src/core/index.js</title>
<g id="a_node3"><a xlink:href="src/core/index.js" xlink:title="index.js">
<path fill="#ffffcc" stroke="#000000" d="M71.7993,-306.3011C71.7993,-306.3011 30.2007,-306.3011 30.2007,-306.3011 27.1004,-306.3011 24,-303.2007 24,-300.1004 24,-300.1004 24,-293.8996 24,-293.8996 24,-290.7993 27.1004,-287.6989 30.2007,-287.6989 30.2007,-287.6989 71.7993,-287.6989 71.7993,-287.6989 74.8996,-287.6989 78,-290.7993 78,-293.8996 78,-293.8996 78,-300.1004 78,-300.1004 78,-303.2007 74.8996,-306.3011 71.7993,-306.3011"/>
<text text-anchor="middle" x="51" y="-294.3" font-family="Helvetica,sans-Serif" font-size="9.00" fill="#000000">index.js</text>
</a>
</g>
</g>
<!-- src/core/index.js&#45;&gt;../../package -->
<g id="edge1" class="edge">
<title>src/core/index.js&#45;&gt;../../package</title>
<path fill="none" stroke="#000000" d="M51.8869,-287.3778C54.6138,-260.0374 64.0549,-179.8125 86,-117 94.3417,-93.124 108.4536,-67.6151 118.3906,-51.0547"/>
<polygon fill="#000000" stroke="#000000" points="121.4423,-52.7732 123.6837,-42.4182 115.4741,-49.1154 121.4423,-52.7732"/>
</g>
<!-- src/core/moon/index.js -->
<g id="node4" class="node">
<title>src/core/moon/index.js</title>
<g id="a_node4"><a xlink:href="src/core/moon/index.js" xlink:title="index.js">
<path fill="#ffffcc" stroke="#000000" d="M150.5507,-146.3011C150.5507,-146.3011 108.9521,-146.3011 108.9521,-146.3011 105.8518,-146.3011 102.7514,-143.2007 102.7514,-140.1004 102.7514,-140.1004 102.7514,-133.8996 102.7514,-133.8996 102.7514,-130.7993 105.8518,-127.6989 108.9521,-127.6989 108.9521,-127.6989 150.5507,-127.6989 150.5507,-127.6989 153.651,-127.6989 156.7514,-130.7993 156.7514,-133.8996 156.7514,-133.8996 156.7514,-140.1004 156.7514,-140.1004 156.7514,-143.2007 153.651,-146.3011 150.5507,-146.3011"/>
<text text-anchor="middle" x="129.7514" y="-134.3" font-family="Helvetica,sans-Serif" font-size="9.00" fill="#000000">index.js</text>
</a>
</g>
</g>
<!-- src/core/index.js&#45;&gt;src/core/moon/index.js -->
<g id="edge2" class="edge">
<title>src/core/index.js&#45;&gt;src/core/moon/index.js</title>
<path fill="none" stroke="#000000" d="M52.5842,-287.5436C56.2022,-267.6805 66.3194,-220.6005 86,-186 92.8033,-174.0392 102.9124,-162.4683 111.6999,-153.5767"/>
<polygon fill="#000000" stroke="#000000" points="114.2372,-155.9913 118.9657,-146.5101 109.3568,-150.9732 114.2372,-155.9913"/>
</g>
<!-- src/core/primitives/array/array.js -->
<g id="node5" class="node">
<title>src/core/primitives/array/array.js</title>
<g id="a_node5"><a xlink:href="src/core/primitives/array/array.js" xlink:title="array.js">
<path fill="#ffffcc" stroke="#000000" d="M150.5507,-459.3011C150.5507,-459.3011 108.9521,-459.3011 108.9521,-459.3011 105.8518,-459.3011 102.7514,-456.2007 102.7514,-453.1004 102.7514,-453.1004 102.7514,-446.8996 102.7514,-446.8996 102.7514,-443.7993 105.8518,-440.6989 108.9521,-440.6989 108.9521,-440.6989 150.5507,-440.6989 150.5507,-440.6989 153.651,-440.6989 156.7514,-443.7993 156.7514,-446.8996 156.7514,-446.8996 156.7514,-453.1004 156.7514,-453.1004 156.7514,-456.2007 153.651,-459.3011 150.5507,-459.3011"/>
<text text-anchor="middle" x="129.7514" y="-447.3" font-family="Helvetica,sans-Serif" font-size="9.00" fill="#000000">array.js</text>
</a>
</g>
</g>
<!-- src/core/index.js&#45;&gt;src/core/primitives/array/array.js -->
<g id="edge3" class="edge">
<title>src/core/index.js&#45;&gt;src/core/primitives/array/array.js</title>
<path fill="none" stroke="#000000" d="M52.4731,-306.3118C56.842,-332.958 70.4004,-408.8265 86,-428 88.2687,-430.7884 90.9814,-433.2559 93.9296,-435.4324"/>
<polygon fill="#000000" stroke="#000000" points="92.3375,-438.5621 102.6888,-440.8205 96.0051,-432.5998 92.3375,-438.5621"/>
</g>
<!-- src/core/primitives/json/json.js -->
<g id="node6" class="node">
<title>src/core/primitives/json/json.js</title>
<g id="a_node6"><a xlink:href="src/core/primitives/json/json.js" xlink:title="json.js">
<path fill="#ffffcc" stroke="#000000" d="M150.5507,-398.3011C150.5507,-398.3011 108.9521,-398.3011 108.9521,-398.3011 105.8518,-398.3011 102.7514,-395.2007 102.7514,-392.1004 102.7514,-392.1004 102.7514,-385.8996 102.7514,-385.8996 102.7514,-382.7993 105.8518,-379.6989 108.9521,-379.6989 108.9521,-379.6989 150.5507,-379.6989 150.5507,-379.6989 153.651,-379.6989 156.7514,-382.7993 156.7514,-385.8996 156.7514,-385.8996 156.7514,-392.1004 156.7514,-392.1004 156.7514,-395.2007 153.651,-398.3011 150.5507,-398.3011"/>
<text text-anchor="middle" x="129.7514" y="-386.3" font-family="Helvetica,sans-Serif" font-size="9.00" fill="#000000">json.js</text>
</a>
</g>
</g>
<!-- src/core/index.js&#45;&gt;src/core/primitives/json/json.js -->
<g id="edge4" class="edge">
<title>src/core/index.js&#45;&gt;src/core/primitives/json/json.js</title>
<path fill="none" stroke="#000000" d="M53.7045,-306.7774C58.2123,-321.4993 68.534,-349.4943 86,-367 88.8242,-369.8306 92.0874,-372.3637 95.5329,-374.6131"/>
<polygon fill="#000000" stroke="#000000" points="93.9065,-377.7146 104.3272,-379.6278 97.374,-371.6338 93.9065,-377.7146"/>
</g>
<!-- src/core/primitives/number/number.js -->
<g id="node7" class="node">
<title>src/core/primitives/number/number.js</title>
<g id="a_node7"><a xlink:href="src/core/primitives/number/number.js" xlink:title="number.js">
<path fill="#ffffcc" stroke="#000000" d="M151.0557,-337.3011C151.0557,-337.3011 108.4471,-337.3011 108.4471,-337.3011 105.3467,-337.3011 102.2464,-334.2007 102.2464,-331.1004 102.2464,-331.1004 102.2464,-324.8996 102.2464,-324.8996 102.2464,-321.7993 105.3467,-318.6989 108.4471,-318.6989 108.4471,-318.6989 151.0557,-318.6989 151.0557,-318.6989 154.1561,-318.6989 157.2564,-321.7993 157.2564,-324.8996 157.2564,-324.8996 157.2564,-331.1004 157.2564,-331.1004 157.2564,-334.2007 154.1561,-337.3011 151.0557,-337.3011"/>
<text text-anchor="middle" x="129.7514" y="-325.3" font-family="Helvetica,sans-Serif" font-size="9.00" fill="#000000">number.js</text>
</a>
</g>
</g>
<!-- src/core/index.js&#45;&gt;src/core/primitives/number/number.js -->
<g id="edge5" class="edge">
<title>src/core/index.js&#45;&gt;src/core/primitives/number/number.js</title>
<path fill="none" stroke="#000000" d="M75.0559,-306.4695C81.8352,-309.1381 89.3323,-312.0893 96.5461,-314.9289"/>
<polygon fill="#000000" stroke="#000000" points="95.5263,-318.2889 106.1134,-318.695 98.0904,-311.7754 95.5263,-318.2889"/>
</g>
<!-- src/core/primitives/object/object.js -->
<g id="node8" class="node">
<title>src/core/primitives/object/object.js</title>
<g id="a_node8"><a xlink:href="src/core/primitives/object/object.js" xlink:title="object.js">
<path fill="#ffffcc" stroke="#000000" d="M150.5507,-276.3011C150.5507,-276.3011 108.9521,-276.3011 108.9521,-276.3011 105.8518,-276.3011 102.7514,-273.2007 102.7514,-270.1004 102.7514,-270.1004 102.7514,-263.8996 102.7514,-263.8996 102.7514,-260.7993 105.8518,-257.6989 108.9521,-257.6989 108.9521,-257.6989 150.5507,-257.6989 150.5507,-257.6989 153.651,-257.6989 156.7514,-260.7993 156.7514,-263.8996 156.7514,-263.8996 156.7514,-270.1004 156.7514,-270.1004 156.7514,-273.2007 153.651,-276.3011 150.5507,-276.3011"/>
<text text-anchor="middle" x="129.7514" y="-264.3" font-family="Helvetica,sans-Serif" font-size="9.00" fill="#000000">object.js</text>
</a>
</g>
</g>
<!-- src/core/index.js&#45;&gt;src/core/primitives/object/object.js -->
<g id="edge6" class="edge">
<title>src/core/index.js&#45;&gt;src/core/primitives/object/object.js</title>
<path fill="none" stroke="#000000" d="M75.4858,-287.6723C81.8564,-285.2454 88.8368,-282.5862 95.6072,-280.0071"/>
<polygon fill="#000000" stroke="#000000" points="97.1819,-283.1526 105.2808,-276.322 94.6899,-276.6112 97.1819,-283.1526"/>
</g>
<!-- src/core/primitives/string/string.js -->
<g id="node9" class="node">
<title>src/core/primitives/string/string.js</title>
<g id="a_node9"><a xlink:href="src/core/primitives/string/string.js" xlink:title="string.js">
<path fill="#ffffcc" stroke="#000000" d="M150.5507,-215.3011C150.5507,-215.3011 108.9521,-215.3011 108.9521,-215.3011 105.8518,-215.3011 102.7514,-212.2007 102.7514,-209.1004 102.7514,-209.1004 102.7514,-202.8996 102.7514,-202.8996 102.7514,-199.7993 105.8518,-196.6989 108.9521,-196.6989 108.9521,-196.6989 150.5507,-196.6989 150.5507,-196.6989 153.651,-196.6989 156.7514,-199.7993 156.7514,-202.8996 156.7514,-202.8996 156.7514,-209.1004 156.7514,-209.1004 156.7514,-212.2007 153.651,-215.3011 150.5507,-215.3011"/>
<text text-anchor="middle" x="129.7514" y="-203.3" font-family="Helvetica,sans-Serif" font-size="9.00" fill="#000000">string.js</text>
</a>
</g>
</g>
<!-- src/core/index.js&#45;&gt;src/core/primitives/string/string.js -->
<g id="edge7" class="edge">
<title>src/core/index.js&#45;&gt;src/core/primitives/string/string.js</title>
<path fill="none" stroke="#000000" d="M56.9013,-287.3559C63.454,-276.957 74.6164,-260.1297 86,-247 93.5693,-238.2697 102.8,-229.402 110.8283,-222.1575"/>
<polygon fill="#000000" stroke="#000000" points="113.1683,-224.7605 118.3498,-215.5192 108.5362,-219.5123 113.1683,-224.7605"/>
</g>
<!-- src/core/register/index.js -->
<g id="node15" class="node">
<title>src/core/register/index.js</title>
<g id="a_node15"><a xlink:href="src/core/register/index.js" xlink:title="index.js">
<path fill="#ffffcc" stroke="#000000" d="M327.0556,-444.3011C327.0556,-444.3011 285.457,-444.3011 285.457,-444.3011 282.3567,-444.3011 279.2563,-441.2007 279.2563,-438.1004 279.2563,-438.1004 279.2563,-431.8996 279.2563,-431.8996 279.2563,-428.7993 282.3567,-425.6989 285.457,-425.6989 285.457,-425.6989 327.0556,-425.6989 327.0556,-425.6989 330.1559,-425.6989 333.2563,-428.7993 333.2563,-431.8996 333.2563,-431.8996 333.2563,-438.1004 333.2563,-438.1004 333.2563,-441.2007 330.1559,-444.3011 327.0556,-444.3011"/>
<text text-anchor="middle" x="306.2563" y="-432.3" font-family="Helvetica,sans-Serif" font-size="9.00" fill="#000000">index.js</text>
</a>
</g>
</g>
<!-- src/core/index.js&#45;&gt;src/core/register/index.js -->
<g id="edge8" class="edge">
<title>src/core/index.js&#45;&gt;src/core/register/index.js</title>
<path fill="none" stroke="#000000" d="M51.1966,-306.3835C52.1506,-341.6194 57.5098,-465.2338 86,-489 145.5559,-538.6808 243.8725,-479.9305 286.0347,-450.205"/>
<polygon fill="#000000" stroke="#000000" points="288.0844,-453.042 294.1452,-444.3519 283.988,-447.3658 288.0844,-453.042"/>
</g>
<!-- src/core/prng/index.js -->
<g id="node10" class="node">
<title>src/core/prng/index.js</title>
<g id="a_node10"><a xlink:href="src/core/prng/index.js" xlink:title="index.js">
<path fill="#ffffcc" stroke="#000000" d="M237.3021,-268.3011C237.3021,-268.3011 195.7035,-268.3011 195.7035,-268.3011 192.6032,-268.3011 189.5028,-265.2007 189.5028,-262.1004 189.5028,-262.1004 189.5028,-255.8996 189.5028,-255.8996 189.5028,-252.7993 192.6032,-249.6989 195.7035,-249.6989 195.7035,-249.6989 237.3021,-249.6989 237.3021,-249.6989 240.4024,-249.6989 243.5028,-252.7993 243.5028,-255.8996 243.5028,-255.8996 243.5028,-262.1004 243.5028,-262.1004 243.5028,-265.2007 240.4024,-268.3011 237.3021,-268.3011"/>
<text text-anchor="middle" x="216.5028" y="-256.3" font-family="Helvetica,sans-Serif" font-size="9.00" fill="#000000">index.js</text>
</a>
</g>
</g>
<!-- src/core/moon/index.js&#45;&gt;src/core/prng/index.js -->
<g id="edge9" class="edge">
<title>src/core/moon/index.js&#45;&gt;src/core/prng/index.js</title>
<path fill="none" stroke="#000000" d="M139.4063,-146.6461C148.7026,-156.1923 162.8782,-171.4464 173.5028,-186 186.4509,-203.7365 198.9214,-225.6136 207.0675,-240.7694"/>
<polygon fill="#000000" stroke="#000000" points="203.9918,-242.4403 211.7578,-249.6473 210.1811,-239.1704 203.9918,-242.4403"/>
</g>
<!-- src/core/recurse/index.js -->
<g id="node14" class="node">
<title>src/core/recurse/index.js</title>
<g id="a_node14"><a xlink:href="src/core/recurse/index.js" xlink:title="index.js">
<path fill="#ffffcc" stroke="#000000" d="M237.3021,-348.3011C237.3021,-348.3011 195.7035,-348.3011 195.7035,-348.3011 192.6032,-348.3011 189.5028,-345.2007 189.5028,-342.1004 189.5028,-342.1004 189.5028,-335.8996 189.5028,-335.8996 189.5028,-332.7993 192.6032,-329.6989 195.7035,-329.6989 195.7035,-329.6989 237.3021,-329.6989 237.3021,-329.6989 240.4024,-329.6989 243.5028,-332.7993 243.5028,-335.8996 243.5028,-335.8996 243.5028,-342.1004 243.5028,-342.1004 243.5028,-345.2007 240.4024,-348.3011 237.3021,-348.3011"/>
<text text-anchor="middle" x="216.5028" y="-336.3" font-family="Helvetica,sans-Serif" font-size="9.00" fill="#000000">index.js</text>
</a>
</g>
</g>
<!-- src/core/primitives/array/array.js&#45;&gt;src/core/recurse/index.js -->
<g id="edge10" class="edge">
<title>src/core/primitives/array/array.js&#45;&gt;src/core/recurse/index.js</title>
<path fill="none" stroke="#000000" d="M156.9626,-441.5071C163.3351,-438.2625 169.4416,-433.8745 173.5028,-428 192.817,-400.0619 160.6782,-378.8312 181.5028,-352 181.632,-351.8336 181.7635,-351.6693 181.8973,-351.5071"/>
<polygon fill="#000000" stroke="#000000" points="183.6681,-354.581 189.1854,-345.5362 179.2318,-349.1662 183.6681,-354.581"/>
</g>
<!-- src/core/primitives/object/object.js&#45;&gt;src/core/recurse/index.js -->
<g id="edge11" class="edge">
<title>src/core/primitives/object/object.js&#45;&gt;src/core/recurse/index.js</title>
<path fill="none" stroke="#000000" d="M141.0926,-276.4127C155.3805,-288.271 180.1458,-308.8252 197.3814,-323.1301"/>
<polygon fill="#000000" stroke="#000000" points="195.2285,-325.8917 205.1588,-329.5849 199.6991,-320.5052 195.2285,-325.8917"/>
</g>
<!-- src/core/primitives/string/string.js&#45;&gt;src/core/recurse/index.js -->
<g id="edge12" class="edge">
<title>src/core/primitives/string/string.js&#45;&gt;src/core/recurse/index.js</title>
<path fill="none" stroke="#000000" d="M143.9393,-215.3775C153.8837,-222.749 166.5889,-233.9348 173.5028,-247 184.2344,-267.2794 171.9152,-277.1554 181.5028,-298 185.6067,-306.9224 192.2272,-315.4192 198.6114,-322.34"/>
<polygon fill="#000000" stroke="#000000" points="196.3217,-325.0031 205.8325,-329.6717 201.3089,-320.091 196.3217,-325.0031"/>
</g>
<!-- src/core/prng/index.js&#45;&gt;src/core/distribution/index.js -->
<g id="edge13" class="edge">
<title>src/core/prng/index.js&#45;&gt;src/core/distribution/index.js</title>
<path fill="none" stroke="#000000" d="M222.5714,-249.2803C232.3314,-233.8249 252.3423,-202.8536 271.2563,-178 277.3668,-169.9706 284.5382,-161.4324 290.7931,-154.2381"/>
<polygon fill="#000000" stroke="#000000" points="293.6088,-156.3368 297.5963,-146.521 288.3579,-151.7077 293.6088,-156.3368"/>
</g>
<!-- src/core/prng/xor.js -->
<g id="node11" class="node">
<title>src/core/prng/xor.js</title>
<g id="a_node11"><a xlink:href="src/core/prng/xor.js" xlink:title="xor.js">
<path fill="#ffffcc" stroke="#000000" d="M327.0556,-268.3011C327.0556,-268.3011 285.457,-268.3011 285.457,-268.3011 282.3567,-268.3011 279.2563,-265.2007 279.2563,-262.1004 279.2563,-262.1004 279.2563,-255.8996 279.2563,-255.8996 279.2563,-252.7993 282.3567,-249.6989 285.457,-249.6989 285.457,-249.6989 327.0556,-249.6989 327.0556,-249.6989 330.1559,-249.6989 333.2563,-252.7993 333.2563,-255.8996 333.2563,-255.8996 333.2563,-262.1004 333.2563,-262.1004 333.2563,-265.2007 330.1559,-268.3011 327.0556,-268.3011"/>
<text text-anchor="middle" x="306.2563" y="-256.3" font-family="Helvetica,sans-Serif" font-size="9.00" fill="#000000">xor.js</text>
</a>
</g>
</g>
<!-- src/core/prng/index.js&#45;&gt;src/core/prng/xor.js -->
<g id="edge15" class="edge">
<title>src/core/prng/index.js&#45;&gt;src/core/prng/xor.js</title>
<path fill="none" stroke="#000000" d="M243.9195,-259C251.749,-259 260.4186,-259 268.7409,-259"/>
<polygon fill="#000000" stroke="#000000" points="269.0075,-262.5001 279.0075,-259 269.0075,-255.5001 269.0075,-262.5001"/>
</g>
<!-- src/core/process&#45;seed/index.js -->
<g id="node12" class="node">
<title>src/core/process&#45;seed/index.js</title>
<g id="a_node12"><a xlink:href="src/core/process-seed/index.js" xlink:title="index.js">
<path fill="#ffffcc" stroke="#000000" d="M327.0556,-207.3011C327.0556,-207.3011 285.457,-207.3011 285.457,-207.3011 282.3567,-207.3011 279.2563,-204.2007 279.2563,-201.1004 279.2563,-201.1004 279.2563,-194.8996 279.2563,-194.8996 279.2563,-191.7993 282.3567,-188.6989 285.457,-188.6989 285.457,-188.6989 327.0556,-188.6989 327.0556,-188.6989 330.1559,-188.6989 333.2563,-191.7993 333.2563,-194.8996 333.2563,-194.8996 333.2563,-201.1004 333.2563,-201.1004 333.2563,-204.2007 330.1559,-207.3011 327.0556,-207.3011"/>
<text text-anchor="middle" x="306.2563" y="-195.3" font-family="Helvetica,sans-Serif" font-size="9.00" fill="#000000">index.js</text>
</a>
</g>
</g>
<!-- src/core/prng/index.js&#45;&gt;src/core/process&#45;seed/index.js -->
<g id="edge14" class="edge">
<title>src/core/prng/index.js&#45;&gt;src/core/process&#45;seed/index.js</title>
<path fill="none" stroke="#000000" d="M230.5268,-249.4688C244.7538,-239.7995 266.9991,-224.6807 283.7055,-213.3264"/>
<polygon fill="#000000" stroke="#000000" points="286.0275,-215.9802 292.3308,-207.4643 282.0927,-210.1907 286.0275,-215.9802"/>
</g>
<!-- src/core/recurse/arguments.js -->
<g id="node13" class="node">
<title>src/core/recurse/arguments.js</title>
<g id="a_node13"><a xlink:href="src/core/recurse/arguments.js" xlink:title="arguments.js">
<path fill="#ffffcc" stroke="#000000" d="M333.5644,-348.3011C333.5644,-348.3011 278.9482,-348.3011 278.9482,-348.3011 275.8479,-348.3011 272.7475,-345.2007 272.7475,-342.1004 272.7475,-342.1004 272.7475,-335.8996 272.7475,-335.8996 272.7475,-332.7993 275.8479,-329.6989 278.9482,-329.6989 278.9482,-329.6989 333.5644,-329.6989 333.5644,-329.6989 336.6647,-329.6989 339.7651,-332.7993 339.7651,-335.8996 339.7651,-335.8996 339.7651,-342.1004 339.7651,-342.1004 339.7651,-345.2007 336.6647,-348.3011 333.5644,-348.3011"/>
<text text-anchor="middle" x="306.2563" y="-336.3" font-family="Helvetica,sans-Serif" font-size="9.00" fill="#000000">arguments.js</text>
</a>
</g>
</g>
<!-- src/core/recurse/index.js&#45;&gt;src/core/recurse/arguments.js -->
<g id="edge17" class="edge">
<title>src/core/recurse/index.js&#45;&gt;src/core/recurse/arguments.js</title>
<path fill="none" stroke="#000000" d="M243.9195,-339C249.732,-339 256.0076,-339 262.2603,-339"/>
<polygon fill="#000000" stroke="#000000" points="262.6759,-342.5001 272.6759,-339 262.6758,-335.5001 262.6759,-342.5001"/>
</g>
<!-- src/core/recurse/index.js&#45;&gt;src/core/register/index.js -->
<g id="edge16" class="edge">
<title>src/core/recurse/index.js&#45;&gt;src/core/register/index.js</title>
<path fill="none" stroke="#000000" d="M238.2924,-348.3314C240.1265,-349.4579 241.8926,-350.6817 243.5028,-352 266.0141,-370.4312 285.0381,-398.5223 296.0529,-416.8238"/>
<polygon fill="#000000" stroke="#000000" points="293.1276,-418.7555 301.1894,-425.63 299.1742,-415.2285 293.1276,-418.7555"/>
</g>
<!-- src/core/register/register.js -->
<g id="node16" class="node">
<title>src/core/register/register.js</title>
<g id="a_node16"><a xlink:href="src/core/register/register.js" xlink:title="register.js">
<path fill="#ffffcc" stroke="#000000" d="M418.809,-428.3011C418.809,-428.3011 376.2147,-428.3011 376.2147,-428.3011 373.1143,-428.3011 370.0139,-425.2007 370.0139,-422.1004 370.0139,-422.1004 370.0139,-415.8996 370.0139,-415.8996 370.0139,-412.7993 373.1143,-409.6989 376.2147,-409.6989 376.2147,-409.6989 418.809,-409.6989 418.809,-409.6989 421.9094,-409.6989 425.0098,-412.7993 425.0098,-415.8996 425.0098,-415.8996 425.0098,-422.1004 425.0098,-422.1004 425.0098,-425.2007 421.9094,-428.3011 418.809,-428.3011"/>
<text text-anchor="middle" x="397.5119" y="-416.3" font-family="Helvetica,sans-Serif" font-size="9.00" fill="#000000">register.js</text>
</a>
</g>
</g>
<!-- src/core/register/index.js&#45;&gt;src/core/register/register.js -->
<g id="edge18" class="edge">
<title>src/core/register/index.js&#45;&gt;src/core/register/register.js</title>
<path fill="none" stroke="#000000" d="M333.636,-430.1995C341.862,-428.7572 351.0355,-427.1488 359.8061,-425.611"/>
<polygon fill="#000000" stroke="#000000" points="360.5908,-429.0269 369.8361,-423.8524 359.3819,-422.1321 360.5908,-429.0269"/>
</g>
<!-- src/core/register/registered.js -->
<g id="node17" class="node">
<title>src/core/register/registered.js</title>
<g id="a_node17"><a xlink:href="src/core/register/registered.js" xlink:title="registered.js">
<path fill="#ffffcc" stroke="#000000" d="M423.8152,-459.3011C423.8152,-459.3011 371.2085,-459.3011 371.2085,-459.3011 368.1081,-459.3011 365.0077,-456.2007 365.0077,-453.1004 365.0077,-453.1004 365.0077,-446.8996 365.0077,-446.8996 365.0077,-443.7993 368.1081,-440.6989 371.2085,-440.6989 371.2085,-440.6989 423.8152,-440.6989 423.8152,-440.6989 426.9156,-440.6989 430.016,-443.7993 430.016,-446.8996 430.016,-446.8996 430.016,-453.1004 430.016,-453.1004 430.016,-456.2007 426.9156,-459.3011 423.8152,-459.3011"/>
<text text-anchor="middle" x="397.5119" y="-447.3" font-family="Helvetica,sans-Serif" font-size="9.00" fill="#000000">registered.js</text>
</a>
</g>
</g>
<!-- src/core/register/index.js&#45;&gt;src/core/register/registered.js -->
<g id="edge19" class="edge">
<title>src/core/register/index.js&#45;&gt;src/core/register/registered.js</title>
<path fill="none" stroke="#000000" d="M333.636,-439.5005C340.2674,-440.5905 347.5144,-441.7817 354.6698,-442.9579"/>
<polygon fill="#000000" stroke="#000000" points="354.5699,-446.4884 365.0053,-444.6568 355.7054,-439.5811 354.5699,-446.4884"/>
</g>
</g>
</svg>