<?xml version="1.0" encoding="UTF-8" standalone="no"?>
<!DOCTYPE svg PUBLIC "-//W3C//DTD SVG 1.1//EN"
 "http://www.w3.org/Graphics/SVG/1.1/DTD/svg11.dtd">
<!-- Generated by graphviz version 2.40.1 (20161225.0304)
 -->
<!-- Title: dependency&#45;cruiser output Pages: 1 -->
<!--
npx dependency-cruiser --exclude "^node_modules" --exclude "test" --output-type dot core | pbcopy
http://viz-js.com/
-->
<svg width="507pt" height="417pt"
 viewBox="0.00 0.00 507.02 417.00" xmlns="http://www.w3.org/2000/svg" xmlns:xlink="http://www.w3.org/1999/xlink">
<g id="graph0" class="graph" transform="scale(1 1) rotate(0) translate(4 413)">
<title>dependency&#45;cruiser output</title>
<polygon fill="#ffffff" stroke="transparent" points="-4,4 -4,-413 503.0184,-413 503.0184,4 -4,4"/>
<g id="clust1" class="cluster">
<title>cluster_/..</title>
<path fill="none" stroke="#000000" stroke-width="2" d="M211.7557,-8C211.7557,-8 257.7557,-8 257.7557,-8 263.7557,-8 269.7557,-14 269.7557,-20 269.7557,-20 269.7557,-49 269.7557,-49 269.7557,-55 263.7557,-61 257.7557,-61 257.7557,-61 211.7557,-61 211.7557,-61 205.7557,-61 199.7557,-55 199.7557,-49 199.7557,-49 199.7557,-20 199.7557,-20 199.7557,-14 205.7557,-8 211.7557,-8"/>
<text text-anchor="middle" x="234.7557" y="-48.9" font-family="Helvetica,sans-Serif" font-weight="bold" font-size="9.00" fill="#000000">..</text>
</g>
<g id="clust2" class="cluster">
<title>cluster_/core</title>
<path fill="none" stroke="#000000" stroke-width="2" d="M20,-69C20,-69 479.0184,-69 479.0184,-69 485.0184,-69 491.0184,-75 491.0184,-81 491.0184,-81 491.0184,-389 491.0184,-389 491.0184,-395 485.0184,-401 479.0184,-401 479.0184,-401 20,-401 20,-401 14,-401 8,-395 8,-389 8,-389 8,-81 8,-81 8,-75 14,-69 20,-69"/>
<text text-anchor="middle" x="249.5092" y="-388.9" font-family="Helvetica,sans-Serif" font-weight="bold" font-size="9.00" fill="#000000">core</text>
</g>
<g id="clust3" class="cluster">
<title>cluster_/core/distribution</title>
<path fill="none" stroke="#000000" stroke-width="2" d="M418.2649,-260C418.2649,-260 464.2649,-260 464.2649,-260 470.2649,-260 476.2649,-266 476.2649,-272 476.2649,-272 476.2649,-301 476.2649,-301 476.2649,-307 470.2649,-313 464.2649,-313 464.2649,-313 418.2649,-313 418.2649,-313 412.2649,-313 406.2649,-307 406.2649,-301 406.2649,-301 406.2649,-272 406.2649,-272 406.2649,-266 412.2649,-260 418.2649,-260"/>
<text text-anchor="middle" x="441.2649" y="-300.9" font-family="Helvetica,sans-Serif" font-weight="bold" font-size="9.00" fill="#000000">distribution</text>
</g>
<g id="clust4" class="cluster">
<title>cluster_/core/moon</title>
<path fill="none" stroke="#000000" stroke-width="2" d="M211.7557,-241C211.7557,-241 257.7557,-241 257.7557,-241 263.7557,-241 269.7557,-247 269.7557,-253 269.7557,-253 269.7557,-282 269.7557,-282 269.7557,-288 263.7557,-294 257.7557,-294 257.7557,-294 211.7557,-294 211.7557,-294 205.7557,-294 199.7557,-288 199.7557,-282 199.7557,-282 199.7557,-253 199.7557,-253 199.7557,-247 205.7557,-241 211.7557,-241"/>
<text text-anchor="middle" x="234.7557" y="-281.9" font-family="Helvetica,sans-Serif" font-weight="bold" font-size="9.00" fill="#000000">moon</text>
</g>
<g id="clust5" class="cluster">
<title>cluster_/core/prng</title>
<path fill="none" stroke="#000000" stroke-width="2" d="M313.5114,-199C313.5114,-199 464.2649,-199 464.2649,-199 470.2649,-199 476.2649,-205 476.2649,-211 476.2649,-211 476.2649,-240 476.2649,-240 476.2649,-246 470.2649,-252 464.2649,-252 464.2649,-252 313.5114,-252 313.5114,-252 307.5114,-252 301.5114,-246 301.5114,-240 301.5114,-240 301.5114,-211 301.5114,-211 301.5114,-205 307.5114,-199 313.5114,-199"/>
<text text-anchor="middle" x="388.8882" y="-239.9" font-family="Helvetica,sans-Serif" font-weight="bold" font-size="9.00" fill="#000000">prng</text>
</g>
<g id="clust6" class="cluster">
<title>cluster_/core/process&#45;seed</title>
<path fill="none" stroke="#000000" stroke-width="2" d="M418.2649,-321C418.2649,-321 464.2649,-321 464.2649,-321 470.2649,-321 476.2649,-327 476.2649,-333 476.2649,-333 476.2649,-362 476.2649,-362 476.2649,-368 470.2649,-374 464.2649,-374 464.2649,-374 418.2649,-374 418.2649,-374 412.2649,-374 406.2649,-368 406.2649,-362 406.2649,-362 406.2649,-333 406.2649,-333 406.2649,-327 412.2649,-321 418.2649,-321"/>
<text text-anchor="middle" x="441.2649" y="-361.9" font-family="Helvetica,sans-Serif" font-weight="bold" font-size="9.00" fill="#000000">process&#45;seed</text>
</g>
<g id="clust7" class="cluster">
<title>cluster_/core/recurse</title>
<path fill="none" stroke="#000000" stroke-width="2" d="M313.5114,-77C313.5114,-77 471.0184,-77 471.0184,-77 477.0184,-77 483.0184,-83 483.0184,-89 483.0184,-89 483.0184,-118 483.0184,-118 483.0184,-124 477.0184,-130 471.0184,-130 471.0184,-130 313.5114,-130 313.5114,-130 307.5114,-130 301.5114,-124 301.5114,-118 301.5114,-118 301.5114,-89 301.5114,-89 301.5114,-83 307.5114,-77 313.5114,-77"/>
<text text-anchor="middle" x="392.2649" y="-117.9" font-family="Helvetica,sans-Serif" font-weight="bold" font-size="9.00" fill="#000000">recurse</text>
</g>
<g id="clust8" class="cluster">
<title>cluster_/core/register</title>
<path fill="none" stroke="#000000" stroke-width="2" d="M313.5114,-138C313.5114,-138 359.5114,-138 359.5114,-138 365.5114,-138 371.5114,-144 371.5114,-150 371.5114,-150 371.5114,-179 371.5114,-179 371.5114,-185 365.5114,-191 359.5114,-191 359.5114,-191 313.5114,-191 313.5114,-191 307.5114,-191 301.5114,-185 301.5114,-179 301.5114,-179 301.5114,-150 301.5114,-150 301.5114,-144 307.5114,-138 313.5114,-138"/>
<text text-anchor="middle" x="336.5114" y="-178.9" font-family="Helvetica,sans-Serif" font-weight="bold" font-size="9.00" fill="#000000">register</text>
</g>
<!-- ../package -->
<g id="node1" class="node">
<title>../package</title>
<path fill="#ffffcc" stroke="#ff0000" d="M255.555,-34.3011C255.555,-34.3011 213.9564,-34.3011 213.9564,-34.3011 210.8561,-34.3011 207.7557,-31.2007 207.7557,-28.1004 207.7557,-28.1004 207.7557,-21.8996 207.7557,-21.8996 207.7557,-18.7993 210.8561,-15.6989 213.9564,-15.6989 213.9564,-15.6989 255.555,-15.6989 255.555,-15.6989 258.6553,-15.6989 261.7557,-18.7993 261.7557,-21.8996 261.7557,-21.8996 261.7557,-28.1004 261.7557,-28.1004 261.7557,-31.2007 258.6553,-34.3011 255.555,-34.3011"/>
<text text-anchor="middle" x="234.7557" y="-22.3" font-family="Helvetica,sans-Serif" font-size="9.00" fill="#ff0000">package</text>
</g>
<!-- core/distribution/index.js -->
<g id="node2" class="node">
<title>core/distribution/index.js</title>
<g id="a_node2"><a xlink:href="core/distribution/index.js" xlink:title="index.js">
<path fill="#ffffcc" stroke="#000000" d="M462.0642,-286.3011C462.0642,-286.3011 420.4656,-286.3011 420.4656,-286.3011 417.3653,-286.3011 414.2649,-283.2007 414.2649,-280.1004 414.2649,-280.1004 414.2649,-273.8996 414.2649,-273.8996 414.2649,-270.7993 417.3653,-267.6989 420.4656,-267.6989 420.4656,-267.6989 462.0642,-267.6989 462.0642,-267.6989 465.1645,-267.6989 468.2649,-270.7993 468.2649,-273.8996 468.2649,-273.8996 468.2649,-280.1004 468.2649,-280.1004 468.2649,-283.2007 465.1645,-286.3011 462.0642,-286.3011"/>
<text text-anchor="middle" x="441.2649" y="-274.3" font-family="Helvetica,sans-Serif" font-size="9.00" fill="#000000">index.js</text>
</a>
</g>
</g>
<!-- core/fiona.array.js -->
<g id="node3" class="node">
<title>core/fiona.array.js</title>
<g id="a_node3"><a xlink:href="core/fiona.array.js" xlink:title="fiona.array.js">
<path fill="#ffffcc" stroke="#000000" d="M262.062,-95.3011C262.062,-95.3011 207.4494,-95.3011 207.4494,-95.3011 204.3491,-95.3011 201.2487,-92.2007 201.2487,-89.1004 201.2487,-89.1004 201.2487,-82.8996 201.2487,-82.8996 201.2487,-79.7993 204.3491,-76.6989 207.4494,-76.6989 207.4494,-76.6989 262.062,-76.6989 262.062,-76.6989 265.1623,-76.6989 268.2627,-79.7993 268.2627,-82.8996 268.2627,-82.8996 268.2627,-89.1004 268.2627,-89.1004 268.2627,-92.2007 265.1623,-95.3011 262.062,-95.3011"/>
<text text-anchor="middle" x="234.7557" y="-83.3" font-family="Helvetica,sans-Serif" font-size="9.00" fill="#000000">fiona.array.js</text>
</a>
</g>
</g>
<!-- core/recurse/index.js -->
<g id="node15" class="node">
<title>core/recurse/index.js</title>
<g id="a_node15"><a xlink:href="core/recurse/index.js" xlink:title="index.js">
<path fill="#ffffcc" stroke="#000000" d="M357.3107,-103.3011C357.3107,-103.3011 315.7121,-103.3011 315.7121,-103.3011 312.6118,-103.3011 309.5114,-100.2007 309.5114,-97.1004 309.5114,-97.1004 309.5114,-90.8996 309.5114,-90.8996 309.5114,-87.7993 312.6118,-84.6989 315.7121,-84.6989 315.7121,-84.6989 357.3107,-84.6989 357.3107,-84.6989 360.411,-84.6989 363.5114,-87.7993 363.5114,-90.8996 363.5114,-90.8996 363.5114,-97.1004 363.5114,-97.1004 363.5114,-100.2007 360.411,-103.3011 357.3107,-103.3011"/>
<text text-anchor="middle" x="336.5114" y="-91.3" font-family="Helvetica,sans-Serif" font-size="9.00" fill="#000000">index.js</text>
</a>
</g>
</g>
<!-- core/fiona.array.js&#45;&gt;core/recurse/index.js -->
<g id="edge1" class="edge">
<title>core/fiona.array.js&#45;&gt;core/recurse/index.js</title>
<path fill="none" stroke="#000000" d="M268.3563,-88.6417C278.2382,-89.4186 289.1067,-90.2731 299.2056,-91.067"/>
<polygon fill="#000000" stroke="#000000" points="299.1339,-94.5721 309.3775,-91.8667 299.6826,-87.5936 299.1339,-94.5721"/>
</g>
<!-- core/fiona.js -->
<g id="node4" class="node">
<title>core/fiona.js</title>
<g id="a_node4"><a xlink:href="core/fiona.js" xlink:title="fiona.js">
<path fill="#ffffcc" stroke="#000000" d="M153.7993,-172.3011C153.7993,-172.3011 112.2007,-172.3011 112.2007,-172.3011 109.1004,-172.3011 106,-169.2007 106,-166.1004 106,-166.1004 106,-159.8996 106,-159.8996 106,-156.7993 109.1004,-153.6989 112.2007,-153.6989 112.2007,-153.6989 153.7993,-153.6989 153.7993,-153.6989 156.8996,-153.6989 160,-156.7993 160,-159.8996 160,-159.8996 160,-166.1004 160,-166.1004 160,-169.2007 156.8996,-172.3011 153.7993,-172.3011"/>
<text text-anchor="middle" x="133" y="-160.3" font-family="Helvetica,sans-Serif" font-size="9.00" fill="#000000">fiona.js</text>
</a>
</g>
</g>
<!-- core/fiona.js&#45;&gt;../package -->
<g id="edge2" class="edge">
<title>core/fiona.js&#45;&gt;../package</title>
<path fill="none" stroke="#000000" d="M138.3737,-153.525C148.6425,-135.7125 172.1599,-96.3001 196,-66 202.6717,-57.5204 210.7777,-48.7469 217.8482,-41.5025"/>
<polygon fill="#000000" stroke="#000000" points="220.4181,-43.8821 224.9973,-34.3279 215.4595,-38.9411 220.4181,-43.8821"/>
</g>
<!-- core/fiona.js&#45;&gt;core/fiona.array.js -->
<g id="edge3" class="edge">
<title>core/fiona.js&#45;&gt;core/fiona.array.js</title>
<path fill="none" stroke="#000000" d="M140.6704,-153.6007C151.7325,-140.5465 173.3382,-116.8602 196,-102 197.0615,-101.304 198.1581,-100.6285 199.2803,-99.9741"/>
<polygon fill="#000000" stroke="#000000" points="200.929,-103.0619 208.2207,-95.3754 197.7272,-96.8371 200.929,-103.0619"/>
</g>
<!-- core/fiona.json.js -->
<g id="node5" class="node">
<title>core/fiona.json.js</title>
<g id="a_node5"><a xlink:href="core/fiona.json.js" xlink:title="fiona.json.js">
<path fill="#ffffcc" stroke="#000000" d="M260.067,-126.3011C260.067,-126.3011 209.4444,-126.3011 209.4444,-126.3011 206.3441,-126.3011 203.2437,-123.2007 203.2437,-120.1004 203.2437,-120.1004 203.2437,-113.8996 203.2437,-113.8996 203.2437,-110.7993 206.3441,-107.6989 209.4444,-107.6989 209.4444,-107.6989 260.067,-107.6989 260.067,-107.6989 263.1673,-107.6989 266.2677,-110.7993 266.2677,-113.8996 266.2677,-113.8996 266.2677,-120.1004 266.2677,-120.1004 266.2677,-123.2007 263.1673,-126.3011 260.067,-126.3011"/>
<text text-anchor="middle" x="234.7557" y="-114.3" font-family="Helvetica,sans-Serif" font-size="9.00" fill="#000000">fiona.json.js</text>
</a>
</g>
</g>
<!-- core/fiona.js&#45;&gt;core/fiona.json.js -->
<g id="edge4" class="edge">
<title>core/fiona.js&#45;&gt;core/fiona.json.js</title>
<path fill="none" stroke="#000000" d="M151.9013,-153.6783C164.3512,-147.6181 181.0536,-139.6384 196,-133 197.8461,-132.1801 199.7474,-131.3499 201.6701,-130.5213"/>
<polygon fill="#000000" stroke="#000000" points="203.4598,-133.5647 211.3074,-126.4468 200.7338,-127.1173 203.4598,-133.5647"/>
</g>
<!-- core/fiona.number.js -->
<g id="node6" class="node">
<title>core/fiona.number.js</title>
<g id="a_node6"><a xlink:href="core/fiona.number.js" xlink:title="fiona.number.js">
<path fill="#ffffcc" stroke="#000000" d="M267.0679,-157.3011C267.0679,-157.3011 202.4435,-157.3011 202.4435,-157.3011 199.3431,-157.3011 196.2428,-154.2007 196.2428,-151.1004 196.2428,-151.1004 196.2428,-144.8996 196.2428,-144.8996 196.2428,-141.7993 199.3431,-138.6989 202.4435,-138.6989 202.4435,-138.6989 267.0679,-138.6989 267.0679,-138.6989 270.1683,-138.6989 273.2686,-141.7993 273.2686,-144.8996 273.2686,-144.8996 273.2686,-151.1004 273.2686,-151.1004 273.2686,-154.2007 270.1683,-157.3011 267.0679,-157.3011"/>
<text text-anchor="middle" x="234.7557" y="-145.3" font-family="Helvetica,sans-Serif" font-size="9.00" fill="#000000">fiona.number.js</text>
</a>
</g>
</g>
<!-- core/fiona.js&#45;&gt;core/fiona.number.js -->
<g id="edge5" class="edge">
<title>core/fiona.js&#45;&gt;core/fiona.number.js</title>
<path fill="none" stroke="#000000" d="M160.0015,-159.0197C168.0439,-157.8341 177.1157,-156.4968 186.0952,-155.1731"/>
<polygon fill="#000000" stroke="#000000" points="186.7517,-158.6143 196.1343,-153.6932 185.7308,-151.6891 186.7517,-158.6143"/>
</g>
<!-- core/fiona.object.js -->
<g id="node7" class="node">
<title>core/fiona.object.js</title>
<g id="a_node7"><a xlink:href="core/fiona.object.js" xlink:title="fiona.object.js">
<path fill="#ffffcc" stroke="#000000" d="M264.0693,-188.3011C264.0693,-188.3011 205.4421,-188.3011 205.4421,-188.3011 202.3417,-188.3011 199.2414,-185.2007 199.2414,-182.1004 199.2414,-182.1004 199.2414,-175.8996 199.2414,-175.8996 199.2414,-172.7993 202.3417,-169.6989 205.4421,-169.6989 205.4421,-169.6989 264.0693,-169.6989 264.0693,-169.6989 267.1697,-169.6989 270.27,-172.7993 270.27,-175.8996 270.27,-175.8996 270.27,-182.1004 270.27,-182.1004 270.27,-185.2007 267.1697,-188.3011 264.0693,-188.3011"/>
<text text-anchor="middle" x="234.7557" y="-176.3" font-family="Helvetica,sans-Serif" font-size="9.00" fill="#000000">fiona.object.js</text>
</a>
</g>
</g>
<!-- core/fiona.js&#45;&gt;core/fiona.object.js -->
<g id="edge6" class="edge">
<title>core/fiona.js&#45;&gt;core/fiona.object.js</title>
<path fill="none" stroke="#000000" d="M160.0015,-167.2457C168.916,-168.6474 179.0953,-170.248 189.0118,-171.8073"/>
<polygon fill="#000000" stroke="#000000" points="188.7643,-175.3113 199.1866,-173.4071 189.8516,-168.3962 188.7643,-175.3113"/>
</g>
<!-- core/fiona.string.js -->
<g id="node8" class="node">
<title>core/fiona.string.js</title>
<g id="a_node8"><a xlink:href="core/fiona.string.js" xlink:title="fiona.string.js">
<path fill="#ffffcc" stroke="#000000" d="M263.0623,-219.3011C263.0623,-219.3011 206.4491,-219.3011 206.4491,-219.3011 203.3488,-219.3011 200.2484,-216.2007 200.2484,-213.1004 200.2484,-213.1004 200.2484,-206.8996 200.2484,-206.8996 200.2484,-203.7993 203.3488,-200.6989 206.4491,-200.6989 206.4491,-200.6989 263.0623,-200.6989 263.0623,-200.6989 266.1626,-200.6989 269.263,-203.7993 269.263,-206.8996 269.263,-206.8996 269.263,-213.1004 269.263,-213.1004 269.263,-216.2007 266.1626,-219.3011 263.0623,-219.3011"/>
<text text-anchor="middle" x="234.7557" y="-207.3" font-family="Helvetica,sans-Serif" font-size="9.00" fill="#000000">fiona.string.js</text>
</a>
</g>
</g>
<!-- core/fiona.js&#45;&gt;core/fiona.string.js -->
<g id="edge7" class="edge">
<title>core/fiona.js&#45;&gt;core/fiona.string.js</title>
<path fill="none" stroke="#000000" d="M151.3179,-172.4101C163.8087,-178.7286 180.7814,-187.1232 196,-194 197.8408,-194.8318 199.7379,-195.6713 201.6575,-196.5069"/>
<polygon fill="#000000" stroke="#000000" points="200.7138,-199.9089 211.286,-200.6011 203.453,-193.4671 200.7138,-199.9089"/>
</g>
<!-- core/moon/index.js -->
<g id="node10" class="node">
<title>core/moon/index.js</title>
<g id="a_node10"><a xlink:href="core/moon/index.js" xlink:title="index.js">
<path fill="#ffffcc" stroke="#000000" d="M255.555,-267.3011C255.555,-267.3011 213.9564,-267.3011 213.9564,-267.3011 210.8561,-267.3011 207.7557,-264.2007 207.7557,-261.1004 207.7557,-261.1004 207.7557,-254.8996 207.7557,-254.8996 207.7557,-251.7993 210.8561,-248.6989 213.9564,-248.6989 213.9564,-248.6989 255.555,-248.6989 255.555,-248.6989 258.6553,-248.6989 261.7557,-251.7993 261.7557,-254.8996 261.7557,-254.8996 261.7557,-261.1004 261.7557,-261.1004 261.7557,-264.2007 258.6553,-267.3011 255.555,-267.3011"/>
<text text-anchor="middle" x="234.7557" y="-255.3" font-family="Helvetica,sans-Serif" font-size="9.00" fill="#000000">index.js</text>
</a>
</g>
</g>
<!-- core/fiona.js&#45;&gt;core/moon/index.js -->
<g id="edge8" class="edge">
<title>core/fiona.js&#45;&gt;core/moon/index.js</title>
<path fill="none" stroke="#000000" d="M137.7233,-172.3232C146.7555,-189.2416 168.0859,-225.086 196,-245 196.7583,-245.541 197.5407,-246.0606 198.3427,-246.5597"/>
<polygon fill="#000000" stroke="#000000" points="196.9782,-249.7911 207.4847,-251.1564 200.1227,-243.5372 196.9782,-249.7911"/>
</g>
<!-- core/register/index.js -->
<g id="node16" class="node">
<title>core/register/index.js</title>
<g id="a_node16"><a xlink:href="core/register/index.js" xlink:title="index.js">
<path fill="#ffffcc" stroke="#000000" d="M357.3107,-164.3011C357.3107,-164.3011 315.7121,-164.3011 315.7121,-164.3011 312.6118,-164.3011 309.5114,-161.2007 309.5114,-158.1004 309.5114,-158.1004 309.5114,-151.8996 309.5114,-151.8996 309.5114,-148.7993 312.6118,-145.6989 315.7121,-145.6989 315.7121,-145.6989 357.3107,-145.6989 357.3107,-145.6989 360.411,-145.6989 363.5114,-148.7993 363.5114,-151.8996 363.5114,-151.8996 363.5114,-158.1004 363.5114,-158.1004 363.5114,-161.2007 360.411,-164.3011 357.3107,-164.3011"/>
<text text-anchor="middle" x="336.5114" y="-152.3" font-family="Helvetica,sans-Serif" font-size="9.00" fill="#000000">index.js</text>
</a>
</g>
</g>
<!-- core/fiona.js&#45;&gt;core/register/index.js -->
<g id="edge9" class="edge">
<title>core/fiona.js&#45;&gt;core/register/index.js</title>
<path fill="none" stroke="#000000" d="M138.9463,-172.4148C148.7561,-186.9514 169.8703,-214.299 196,-225 227.8797,-238.0558 242.0418,-239.0154 273.5114,-225 276.7275,-223.5677 304.1424,-192.3662 321.7325,-172.1082"/>
<polygon fill="#000000" stroke="#000000" points="324.4519,-174.3145 328.3545,-164.4646 319.1612,-169.7309 324.4519,-174.3145"/>
</g>
<!-- core/fiona.object.js&#45;&gt;core/recurse/index.js -->
<g id="edge10" class="edge">
<title>core/fiona.object.js&#45;&gt;core/recurse/index.js</title>
<path fill="none" stroke="#000000" d="M261.8324,-169.6321C265.9053,-167.7166 269.9345,-165.5062 273.5114,-163 279.124,-159.0674 304.7798,-130.259 321.571,-111.1308"/>
<polygon fill="#000000" stroke="#000000" points="324.3966,-113.2167 328.3493,-103.3868 319.1293,-108.6062 324.3966,-113.2167"/>
</g>
<!-- core/fiona.string.js&#45;&gt;core/recurse/index.js -->
<g id="edge11" class="edge">
<title>core/fiona.string.js&#45;&gt;core/recurse/index.js</title>
<path fill="none" stroke="#000000" d="M264.1352,-200.678C267.538,-198.8145 270.7667,-196.6066 273.5114,-194 294.5578,-174.012 285.7299,-159.3601 301.5114,-135 306.9244,-126.6446 313.8821,-118.1538 320.1661,-111.0828"/>
<polygon fill="#000000" stroke="#000000" points="322.9173,-113.2614 327.1007,-103.5275 317.7602,-108.5281 322.9173,-113.2614"/>
</g>
<!-- core/index.js -->
<g id="node9" class="node">
<title>core/index.js</title>
<g id="a_node9"><a xlink:href="core/index.js" xlink:title="index.js">
<path fill="#ffffcc" stroke="#000000" d="M63.7993,-172.3011C63.7993,-172.3011 22.2007,-172.3011 22.2007,-172.3011 19.1004,-172.3011 16,-169.2007 16,-166.1004 16,-166.1004 16,-159.8996 16,-159.8996 16,-156.7993 19.1004,-153.6989 22.2007,-153.6989 22.2007,-153.6989 63.7993,-153.6989 63.7993,-153.6989 66.8996,-153.6989 70,-156.7993 70,-159.8996 70,-159.8996 70,-166.1004 70,-166.1004 70,-169.2007 66.8996,-172.3011 63.7993,-172.3011"/>
<text text-anchor="middle" x="43" y="-160.3" font-family="Helvetica,sans-Serif" font-size="9.00" fill="#000000">index.js</text>
</a>
</g>
</g>
<!-- core/index.js&#45;&gt;core/fiona.js -->
<g id="edge12" class="edge">
<title>core/index.js&#45;&gt;core/fiona.js</title>
<path fill="none" stroke="#000000" d="M70.003,-163C78.0277,-163 86.9665,-163 95.5309,-163"/>
<polygon fill="#000000" stroke="#000000" points="95.7051,-166.5001 105.705,-163 95.705,-159.5001 95.7051,-166.5001"/>
</g>
<!-- core/prng/index.js -->
<g id="node11" class="node">
<title>core/prng/index.js</title>
<g id="a_node11"><a xlink:href="core/prng/index.js" xlink:title="index.js">
<path fill="#ffffcc" stroke="#000000" d="M357.3107,-225.3011C357.3107,-225.3011 315.7121,-225.3011 315.7121,-225.3011 312.6118,-225.3011 309.5114,-222.2007 309.5114,-219.1004 309.5114,-219.1004 309.5114,-212.8996 309.5114,-212.8996 309.5114,-209.7993 312.6118,-206.6989 315.7121,-206.6989 315.7121,-206.6989 357.3107,-206.6989 357.3107,-206.6989 360.411,-206.6989 363.5114,-209.7993 363.5114,-212.8996 363.5114,-212.8996 363.5114,-219.1004 363.5114,-219.1004 363.5114,-222.2007 360.411,-225.3011 357.3107,-225.3011"/>
<text text-anchor="middle" x="336.5114" y="-213.3" font-family="Helvetica,sans-Serif" font-size="9.00" fill="#000000">index.js</text>
</a>
</g>
</g>
<!-- core/moon/index.js&#45;&gt;core/prng/index.js -->
<g id="edge13" class="edge">
<title>core/moon/index.js&#45;&gt;core/prng/index.js</title>
<path fill="none" stroke="#000000" d="M261.9946,-249.2765C265.8844,-247.9111 269.817,-246.465 273.5114,-245 284.9945,-240.4465 297.3919,-234.8851 308.1265,-229.855"/>
<polygon fill="#000000" stroke="#000000" points="309.9127,-232.8814 317.4435,-225.429 306.909,-226.5586 309.9127,-232.8814"/>
</g>
<!-- core/prng/index.js&#45;&gt;core/distribution/index.js -->
<g id="edge14" class="edge">
<title>core/prng/index.js&#45;&gt;core/distribution/index.js</title>
<path fill="none" stroke="#000000" d="M352.8791,-225.5313C369.8682,-235.4243 396.6539,-251.0222 416.2887,-262.4559"/>
<polygon fill="#000000" stroke="#000000" points="414.6092,-265.528 425.0121,-267.5357 418.1318,-259.4789 414.6092,-265.528"/>
</g>
<!-- core/prng/xor.js -->
<g id="node12" class="node">
<title>core/prng/xor.js</title>
<g id="a_node12"><a xlink:href="core/prng/xor.js" xlink:title="xor.js">
<path fill="#ffffcc" stroke="#000000" d="M462.0642,-225.3011C462.0642,-225.3011 420.4656,-225.3011 420.4656,-225.3011 417.3653,-225.3011 414.2649,-222.2007 414.2649,-219.1004 414.2649,-219.1004 414.2649,-212.8996 414.2649,-212.8996 414.2649,-209.7993 417.3653,-206.6989 420.4656,-206.6989 420.4656,-206.6989 462.0642,-206.6989 462.0642,-206.6989 465.1645,-206.6989 468.2649,-209.7993 468.2649,-212.8996 468.2649,-212.8996 468.2649,-219.1004 468.2649,-219.1004 468.2649,-222.2007 465.1645,-225.3011 462.0642,-225.3011"/>
<text text-anchor="middle" x="441.2649" y="-213.3" font-family="Helvetica,sans-Serif" font-size="9.00" fill="#000000">xor.js</text>
</a>
</g>
</g>
<!-- core/prng/index.js&#45;&gt;core/prng/xor.js -->
<g id="edge16" class="edge">
<title>core/prng/index.js&#45;&gt;core/prng/xor.js</title>
<path fill="none" stroke="#000000" d="M363.7607,-216C376.0061,-216 390.6531,-216 403.9005,-216"/>
<polygon fill="#000000" stroke="#000000" points="404.1521,-219.5001 414.152,-216 404.152,-212.5001 404.1521,-219.5001"/>
</g>
<!-- core/process&#45;seed/index.js -->
<g id="node13" class="node">
<title>core/process&#45;seed/index.js</title>
<g id="a_node13"><a xlink:href="core/process-seed/index.js" xlink:title="index.js">
<path fill="#ffffcc" stroke="#000000" d="M462.0642,-347.3011C462.0642,-347.3011 420.4656,-347.3011 420.4656,-347.3011 417.3653,-347.3011 414.2649,-344.2007 414.2649,-341.1004 414.2649,-341.1004 414.2649,-334.8996 414.2649,-334.8996 414.2649,-331.7993 417.3653,-328.6989 420.4656,-328.6989 420.4656,-328.6989 462.0642,-328.6989 462.0642,-328.6989 465.1645,-328.6989 468.2649,-331.7993 468.2649,-334.8996 468.2649,-334.8996 468.2649,-341.1004 468.2649,-341.1004 468.2649,-344.2007 465.1645,-347.3011 462.0642,-347.3011"/>
<text text-anchor="middle" x="441.2649" y="-335.3" font-family="Helvetica,sans-Serif" font-size="9.00" fill="#000000">index.js</text>
</a>
</g>
</g>
<!-- core/prng/index.js&#45;&gt;core/process&#45;seed/index.js -->
<g id="edge15" class="edge">
<title>core/prng/index.js&#45;&gt;core/process&#45;seed/index.js</title>
<path fill="none" stroke="#000000" d="M341.4162,-225.4765C351.5543,-244.4062 376.3873,-287.5205 406.2649,-316 408.8365,-318.4512 411.7221,-320.777 414.7043,-322.9343"/>
<polygon fill="#000000" stroke="#000000" points="412.9098,-325.9435 423.1836,-328.5319 416.7663,-320.1016 412.9098,-325.9435"/>
</g>
<!-- core/recurse/arguments.js -->
<g id="node14" class="node">
<title>core/recurse/arguments.js</title>
<g id="a_node14"><a xlink:href="core/recurse/arguments.js" xlink:title="arguments.js">
<path fill="#ffffcc" stroke="#000000" d="M468.573,-103.3011C468.573,-103.3011 413.9568,-103.3011 413.9568,-103.3011 410.8565,-103.3011 407.7561,-100.2007 407.7561,-97.1004 407.7561,-97.1004 407.7561,-90.8996 407.7561,-90.8996 407.7561,-87.7993 410.8565,-84.6989 413.9568,-84.6989 413.9568,-84.6989 468.573,-84.6989 468.573,-84.6989 471.6733,-84.6989 474.7737,-87.7993 474.7737,-90.8996 474.7737,-90.8996 474.7737,-97.1004 474.7737,-97.1004 474.7737,-100.2007 471.6733,-103.3011 468.573,-103.3011"/>
<text text-anchor="middle" x="441.2649" y="-91.3" font-family="Helvetica,sans-Serif" font-size="9.00" fill="#000000">arguments.js</text>
</a>
</g>
</g>
<!-- core/recurse/index.js&#45;&gt;core/recurse/arguments.js -->
<g id="edge17" class="edge">
<title>core/recurse/index.js&#45;&gt;core/recurse/arguments.js</title>
<path fill="none" stroke="#000000" d="M363.7607,-94C373.9716,-94 385.8522,-94 397.1988,-94"/>
<polygon fill="#000000" stroke="#000000" points="397.4059,-97.5001 407.4059,-94 397.4058,-90.5001 397.4059,-97.5001"/>
</g>
<!-- core/register/index.js&#45;&gt;core/recurse/arguments.js -->
<g id="edge18" class="edge">
<title>core/register/index.js&#45;&gt;core/recurse/arguments.js</title>
<path fill="none" stroke="#000000" d="M352.8791,-145.4688C369.8682,-135.5757 396.6539,-119.9778 416.2887,-108.5441"/>
<polygon fill="#000000" stroke="#000000" points="418.1318,-111.5211 425.0121,-103.4643 414.6092,-105.472 418.1318,-111.5211"/>
</g>
</g>
</svg>